<?xml version="1.0" encoding="utf-8"?>
<!-- Generator: Adobe Illustrator 22.1.0, SVG Export Plug-In . SVG Version: 6.00 Build 0)  -->
<svg version="1.1" id="Layer_1" xmlns="http://www.w3.org/2000/svg" xmlns:xlink="http://www.w3.org/1999/xlink" x="0px" y="0px"
	 width="23.7px" height="23.7px" viewBox="0 0 23.7 23.7" style="enable-background:new 0 0 23.7 23.7;" xml:space="preserve">
<g>
	<g>
		<path d="M16,7.7L16,7.7C16,7.7,16,7.7,16,7.7C16,7.7,16,7.7,16,7.7L16,7.7c-0.1-0.5-0.3-1-0.5-1.5C14.3,3.6,11.7,2,8.8,2.1
			C5,2,1.8,5.1,1.7,8.9c0,0.1,0,0.2,0,0.2v3.6c0,2.6-1,3.2-1,3.2c1.4,0.1,2.7-0.4,3.7-1.4c0.4,0.4,0.9,0.7,1.5,0.9
			c0.5,0.2,1,0.3,1.5,0.4l0,0C7.7,16,7.9,16,8.1,16c0.2,0,0.5,0,0.7,0c0.5,0,1,0,1.5-0.1c0.5-0.1,0.9-0.2,1.4-0.4
			c0.4-0.2,0.9-0.4,1.3-0.6c0.6-0.4,1.1-0.8,1.6-1.3c1.1-1.2,1.7-2.8,1.7-4.5C16.2,8.7,16.1,8.2,16,7.7z"/>
	</g>
	<g>
		<g>
			<path d="M16.1,9.1c0,1.6-0.6,3.2-1.7,4.5c-0.5,0.5-1,1-1.6,1.3c-0.4,0.2-0.8,0.5-1.3,0.6c-0.4,0.2-0.9,0.3-1.4,0.4
				C9.8,16,9.3,16,8.8,16c-0.2,0-0.5,0-0.7,0c-0.2,0-0.3,0-0.5-0.1c0,0,0,0,0,0C7.8,16,7.9,16,8.1,16c0.2,0,0.5,0,0.7,0c0,0,0,0,0,0
				c0.5,0,1,0,1.5-0.1c0.5-0.1,0.9-0.2,1.4-0.4c0.4-0.2,0.9-0.4,1.3-0.6c0.6-0.4,1.1-0.8,1.6-1.3C15.6,12.4,16.2,10.8,16.1,9.1
				c0.1-0.5,0-0.9-0.1-1.4c0,0,0,0,0,0C16.1,8.2,16.1,8.6,16.1,9.1z"/>
		</g>
		<g>
			<path d="M22,18.3v-3.6c0-0.1,0-0.2,0-0.2c-0.1-2.9-1.8-5.3-4.3-6.3c0,0.3,0.1,0.7,0.1,1c0,2-0.7,3.9-2,5.5
				c-0.6,0.6-1.2,1.2-1.9,1.6c-0.5,0.3-1,0.5-1.5,0.7c-0.5,0.2-1.1,0.4-1.7,0.5c-0.6,0.1-1.2,0.2-1.8,0.2c-0.3,0-0.5,0-0.8,0
				c0.3,0.6,0.6,1.1,1.1,1.6c0.5,0.5,1,1,1.6,1.3c0.4,0.2,0.8,0.5,1.3,0.6c0.4,0.2,0.9,0.3,1.4,0.4c0.5,0.1,1,0.1,1.5,0.1
				c0.2,0,0.5,0,0.7,0c0.2,0,0.5,0,0.7-0.1l0,0c0.5-0.1,1-0.2,1.5-0.4c0.6-0.2,1.1-0.5,1.5-0.9c1,0.9,2.3,1.4,3.7,1.4
				C22.9,21.5,22,20.9,22,18.3z"/>
		</g>
	</g>
</g>
</svg>
