<?xml version="1.0" encoding="utf-8"?>
<!-- Generator: Adobe Illustrator 22.1.0, SVG Export Plug-In . SVG Version: 6.00 Build 0)  -->
<svg version="1.1" id="Layer_1" xmlns="http://www.w3.org/2000/svg" xmlns:xlink="http://www.w3.org/1999/xlink" x="0px" y="0px"
	 width="23.7px" height="23.7px" viewBox="0 0 23.7 23.7" style="enable-background:new 0 0 23.7 23.7;" xml:space="preserve">
<style type="text/css">
	.st0{fill:#231F20;}
</style>
<path class="st0" d="M22.2,19.8L22.2,19.8c0,0-0.7-0.5-0.7-2.4v-3.2c0-2.9-1.7-5.5-4.2-6.4c-0.3-0.1-0.6-0.3-1-0.3
	c-0.1-0.4-0.3-0.7-0.4-0.9C14.7,4,12.2,2.3,9.4,2.3H9.3c-1.7,0-3.5,0.7-5,2C3,5.6,2.2,7.3,2.2,9.2v3.5c0,1.8-0.5,2.3-0.5,2.3L0,16.2
	l2.1,0.2c1.3,0,2.5-0.4,3.3-1c0.3,0.3,0.7,0.4,1.1,0.5c0.2,0.1,0.6,0.3,1.1,0.3c0,0.1,0.1,0.3,0.1,0.4c0,0.2,0.1,0.4,0.2,0.5
	c1.2,2.5,3.7,4.1,6.4,4.1h0.1c1.3,0,2.8-0.4,3.9-1c0.9,0.7,2,1,3,1c0.2,0,0.3,0,0.5,0l1.9-0.2L22.2,19.8z M9.3,16.3
	c1.3,0,2.7-0.4,4-1.1c2-1.2,3.2-3.4,3.2-5.8V9c0,0,0,0,0,0c0.1,0,0.2,0.1,0.2,0.1c2,0.8,3.4,2.9,3.4,5.2v3.2c0,0.9,0.1,1.6,0.3,2.1
	c-0.6-0.2-1.1-0.4-1.6-0.9l-0.5-0.5l-0.5,0.5c-0.7,0.7-2,1.1-3.4,1.1c-2.2,0.1-4.3-1.2-5.3-3.2c0-0.1,0-0.2-0.1-0.2c0,0,0,0,0,0H9.3
	z M8.8,14.3c0-1.2,0.4-2.3,1.1-3.4c0.1-0.2,0.3-0.5,0.5-0.7c0.9-0.9,2.5-1.5,4-1.5h0.6c0.1,0.2,0.1,0.5,0.1,0.7
	c0,1.5-0.7,3.1-1.9,4.1c-1.1,0.9-2.5,1.4-4.4,1.4h0V14.3z M7.3,14.5c-0.1,0-0.2-0.1-0.3-0.1c-0.1,0-0.1,0-0.1,0
	c-0.3-0.1-0.6-0.4-0.9-0.6l0,0c-0.1-0.1-0.3-0.2-0.4-0.3c-0.1-0.1-0.3,0-0.9,0.6c-0.1,0.1-0.2,0.2-0.2,0.2c-0.3,0.2-0.6,0.3-1,0.4
	c0.1-0.5,0.2-1.1,0.2-2V9.4c0-1.4,0.5-2.6,1.7-3.9c1-1,2.4-1.5,3.8-1.5h0.1c2.3,0,4.4,1.3,5.4,3.3c0.1,0.2,0.1,0.3,0.1,0.3
	c0,0-0.1,0-0.1,0C12.8,7.3,11.1,7.9,9.7,9c-1.5,1.3-2.4,3.2-2.4,5.3V14.5z M7.4,14.7C7.4,14.7,7.4,14.7,7.4,14.7L7.4,14.7L7.4,14.7z
	"/>
</svg>
