<?xml version="1.0" encoding="utf-8"?>
<!-- Generator: Adobe Illustrator 22.1.0, SVG Export Plug-In . SVG Version: 6.00 Build 0)  -->
<svg version="1.1" id="Layer_1" xmlns="http://www.w3.org/2000/svg" xmlns:xlink="http://www.w3.org/1999/xlink" x="0px" y="0px"
	 width="24px" height="24px" viewBox="0 0 24 24" enable-background="new 0 0 24 24" xml:space="preserve">
<g>
	<g>
		<g>
			<path fill="#26A7DF" d="M16,5C14.8,2.3,12,0.4,8.8,0.4c-4.4,0-7.6,3.5-7.6,7.9v4c0,2.8-1,3.6-1,3.6c1.3,0.1,2.9-0.4,4-1.5
				c0.4,0.4,1,0.8,1.6,1c0.5,0.2,1,0.4,1.6,0.5c0-0.2-0.1-0.5-0.1-0.7c0-0.2,0-0.5,0-0.7c0-1.6,0.5-3.2,1.3-4.4
				c0.3-0.4,0.6-0.8,1-1.2c0.2-0.2,0.4-0.3,0.6-0.5c0.4-0.3,0.8-0.6,1.2-0.8c0.4-0.2,0.9-0.4,1.4-0.6c0.7-0.2,1.5-0.3,2.3-0.3l0,0
				c0.3,0,0.5,0,0.7,0c0.2,0,0.5,0.1,0.7,0.1C16.4,6,16.2,5.5,16,5z"/>
		</g>
	</g>
	<g>
		<path fill="#A3CC39" d="M22.7,18.3v-4c0-3.3-1.8-6-4.6-7.2c-0.5-0.2-1-0.4-1.6-0.5c0.1,0.5,0.2,1.1,0.2,1.7c0,1.9-0.7,3.6-1.8,4.9
			c-0.5,0.6-1,1-1.7,1.5c-0.4,0.3-0.9,0.5-1.3,0.7c-0.5,0.2-1,0.3-1.5,0.4c-0.5,0.1-1,0.2-1.6,0.2c-0.3,0-0.5,0-0.7,0
			c-0.3,0-0.5-0.1-0.7-0.1c0.1,0.6,0.3,1.1,0.5,1.6c1.2,2.8,3.9,4.6,7.2,4.6c1.8,0,3.5-0.5,4.6-1.6c1,1,2.9,1.8,4.1,1.5
			C23.8,21.9,22.7,21.3,22.7,18.3z"/>
	</g>
	<g>
		<path fill="none" d="M15.1,6.5c-4.4,0-7.8,3.5-7.8,7.9c0,0.5,0.1,1,0.1,1.5c0.5,0.1,1,0.1,1.5,0.1c4.4,0,7.8-3.3,7.8-7.6
			c0-0.6-0.1-1.1-0.2-1.7C16.1,6.5,15.6,6.5,15.1,6.5z"/>
	</g>
	<g>
		<path fill="none" d="M16.3,8.2C16.3,8.2,16.2,8.2,16.3,8.2c-0.1,0-0.1,0-0.2,0c0,0-0.1,0.1-0.1,0.2c0,0.1,0,0.2,0,0.3
			c0,0.1,0,0.3,0.1,0.3c0,0.1,0.1,0.1,0.1,0.1c0,0,0.1,0,0.1,0c0,0,0.1-0.1,0.1-0.1c0-0.1,0-0.2,0-0.4c0-0.1,0-0.2,0-0.3
			C16.3,8.3,16.3,8.2,16.3,8.2z"/>
		<path fill="none" d="M13.4,11C13.4,11,13.4,11,13.4,11c-0.1,0-0.1,0-0.2,0c0,0-0.1,0.1-0.1,0.2c0,0.1,0,0.2,0,0.3
			c0,0.2,0,0.3,0.1,0.4c0,0.1,0.1,0.1,0.1,0.1c0,0,0.1,0,0.1,0c0,0,0.1-0.1,0.1-0.1c0-0.1,0-0.2,0-0.4c0-0.1,0-0.2,0-0.3
			C13.5,11.1,13.5,11.1,13.4,11z"/>
		<path fill="none" d="M13.3,9.1C13.4,9.1,13.4,9.1,13.3,9.1C13.5,9.1,13.5,9,13.5,9c0-0.1,0-0.2,0-0.4c0-0.1,0-0.2,0-0.3
			c0-0.1,0-0.1-0.1-0.1c0,0,0,0-0.1,0c0,0-0.1,0-0.1,0c0,0-0.1,0.1-0.1,0.2c0,0.1,0,0.2,0,0.3c0,0.1,0,0.3,0.1,0.3
			C13.2,9.1,13.3,9.1,13.3,9.1z"/>
		<path fill="none" d="M11.9,10.6C11.9,10.6,12,10.6,11.9,10.6c0.1-0.1,0.1-0.1,0.2-0.2c0-0.1,0-0.2,0-0.4c0-0.1,0-0.2,0-0.3
			c0-0.1,0-0.1-0.1-0.1c0,0,0,0-0.1,0c0,0-0.1,0-0.1,0c0,0-0.1,0.1-0.1,0.2c0,0.1,0,0.2,0,0.3c0,0.1,0,0.3,0.1,0.3
			C11.8,10.6,11.9,10.6,11.9,10.6z"/>
		<path fill="none" d="M9.1,12.5C9.1,12.5,9.1,12.5,9.1,12.5c-0.1,0-0.1,0-0.2,0c0,0-0.1,0.1-0.1,0.2c0,0.1,0,0.2,0,0.3
			c0,0.1,0,0.3,0.1,0.3c0,0.1,0.1,0.1,0.1,0.1c0,0,0.1,0,0.1,0c0,0,0.1-0.1,0.1-0.1c0-0.1,0-0.2,0-0.4c0-0.1,0-0.2,0-0.3
			C9.2,12.6,9.2,12.5,9.1,12.5z"/>
		<path fill="none" d="M10.5,10.6C10.5,10.6,10.5,10.6,10.5,10.6c0.1-0.1,0.1-0.1,0.2-0.2c0-0.1,0-0.2,0-0.4c0-0.1,0-0.2,0-0.3
			c0-0.1,0-0.1-0.1-0.1c0,0,0,0-0.1,0c0,0-0.1,0-0.1,0c0,0-0.1,0.1-0.1,0.2c0,0.1,0,0.2,0,0.3c0,0.1,0,0.3,0.1,0.3
			C10.4,10.5,10.4,10.6,10.5,10.6z"/>
		<path fill="none" d="M7.6,14.9C7.6,14.9,7.7,14.9,7.6,14.9c0.1-0.1,0.1-0.1,0.2-0.2c0-0.1,0-0.2,0-0.4c0-0.1,0-0.2,0-0.3
			c0-0.1,0-0.1-0.1-0.1c0,0,0,0-0.1,0c0,0-0.1,0-0.1,0c0,0-0.1,0.1-0.1,0.2c0,0.1,0,0.2,0,0.3c0,0.1,0,0.3,0.1,0.3
			C7.5,14.8,7.6,14.9,7.6,14.9z"/>
		<path fill="none" d="M7.6,13.4C7.6,13.4,7.7,13.4,7.6,13.4c0.1-0.1,0.1-0.1,0.2-0.2c0-0.1,0-0.2,0-0.4c0-0.1,0-0.2,0-0.3
			c0-0.1,0-0.1-0.1-0.1c0,0,0,0-0.1,0c0,0-0.1,0-0.1,0c0,0-0.1,0.1-0.1,0.2c0,0.1,0,0.2,0,0.3c0,0.1,0,0.3,0.1,0.3
			C7.5,13.4,7.6,13.4,7.6,13.4z"/>
		<path fill="none" d="M11.9,9.1C11.9,9.1,12,9.1,11.9,9.1C12,9.1,12.1,9,12.1,9c0-0.1,0-0.2,0-0.4c0-0.1,0-0.2,0-0.3
			c0-0.1,0-0.1-0.1-0.1c0,0,0,0-0.1,0c0,0-0.1,0-0.1,0c0,0-0.1,0.1-0.1,0.2c0,0.1,0,0.2,0,0.3c0,0.1,0,0.3,0.1,0.3
			C11.8,9.1,11.9,9.1,11.9,9.1z"/>
		<path fill="none" d="M11.9,13.5C11.9,13.5,12,13.5,11.9,13.5c0.1-0.1,0.1-0.1,0.2-0.2c0-0.1,0-0.2,0-0.4c0-0.1,0-0.2,0-0.3
			c0-0.1,0-0.1-0.1-0.1c0,0-0.1,0-0.1,0c0,0-0.1,0-0.1,0.1c0,0-0.1,0.1-0.1,0.2c0,0.1,0,0.2,0,0.3c0,0.2,0,0.3,0.1,0.4
			C11.8,13.5,11.8,13.5,11.9,13.5z"/>
		<path fill="none" d="M11.9,12.1C11.9,12.1,12,12,11.9,12.1c0.1-0.1,0.1-0.1,0.2-0.2c0-0.1,0-0.2,0-0.4c0-0.1,0-0.2,0-0.3
			c0-0.1,0-0.1-0.1-0.1c0,0,0,0-0.1,0s-0.1,0-0.1,0c0,0-0.1,0.1-0.1,0.2c0,0.1,0,0.2,0,0.3c0,0.2,0,0.3,0.1,0.4
			C11.8,12,11.9,12.1,11.9,12.1z"/>
		<path fill="none" d="M16,7.2c0,0.1,0,0.2,0,0.3c0,0.1,0.1,0.1,0.1,0.1c0,0,0.1,0,0.1,0c0,0,0-0.1,0.1-0.1c0-0.1,0-0.2,0-0.3
			c0-0.1,0-0.2,0-0.3c0-0.1,0-0.1-0.1-0.1c0,0,0,0-0.1,0c0,0-0.1,0-0.1,0c0,0-0.1,0.1-0.1,0.2C16.1,7.1,16,7.2,16,7.2z"/>
		<path fill="none" d="M11.9,15C11.9,15,12,14.9,11.9,15c0.1-0.1,0.2-0.1,0.2-0.2c0-0.1,0-0.2,0-0.4c0-0.1,0-0.2,0-0.3
			c0-0.1,0-0.1-0.1-0.1c0,0-0.1,0-0.1,0c0,0-0.1,0-0.1,0.1c0,0-0.1,0.1-0.1,0.2c0,0.1,0,0.2,0,0.3c0,0.2,0,0.3,0.1,0.4
			C11.8,14.9,11.8,15,11.9,15z"/>
		<path fill="none" d="M16.3,9.6C16.3,9.6,16.2,9.6,16.3,9.6c-0.1,0-0.1,0-0.2,0c0,0-0.1,0.1-0.1,0.2c0,0.1,0,0.2,0,0.3
			c0,0.1,0,0.3,0.1,0.4c0,0.1,0.1,0.1,0.1,0.1c0,0,0.1,0,0.1,0s0.1-0.1,0.1-0.1c0-0.1,0-0.2,0-0.4c0-0.1,0-0.2,0-0.3
			C16.3,9.7,16.3,9.6,16.3,9.6z"/>
		<path fill="#A3CC39" d="M11.7,7.6c0.1,0.1,0.1,0.2,0.2,0.2c0,0,0.1,0,0.1-0.1c0,0,0.1-0.1,0.1-0.2c0-0.1,0-0.2,0-0.3
			c0-0.1,0-0.1,0-0.2c0,0-0.1,0-0.1,0c0,0,0,0.1,0,0.1c0,0.1,0,0.3,0,0.3c0,0.1,0,0.1-0.1,0.1c0,0-0.1,0-0.1,0
			C11.8,7.7,11.8,7.6,11.7,7.6c0.1-0.1,0.1-0.2,0.1-0.3c0,0,0,0,0,0c0,0-0.1,0-0.1,0.1C11.6,7.4,11.6,7.5,11.7,7.6z"/>
		<path fill="#A3CC39" d="M13.4,6.7l-0.2,0.1l0,0c0,0,0.1,0,0.1,0c0,0,0,0,0,0c0,0,0,0,0,0c0,0,0,0.1,0,0.1v0.5c0,0.1,0,0.1,0,0.1
			c0,0,0,0,0,0c0,0,0,0-0.1,0v0h0.4v0c0,0-0.1,0-0.1,0c0,0,0,0,0,0c0,0,0,0,0-0.1L13.4,6.7L13.4,6.7z"/>
		<path fill="#A3CC39" d="M14.8,6.7l-0.2,0.1l0,0c0,0,0.1,0,0.1,0c0,0,0,0,0,0c0,0,0,0,0,0c0,0,0,0.1,0,0.1v0.5c0,0.1,0,0.1,0,0.1
			c0,0,0,0,0,0c0,0,0,0-0.1,0v0H15v0c0,0-0.1,0-0.1,0s0,0,0,0c0,0,0,0,0-0.1L14.8,6.7L14.8,6.7z"/>
		<path fill="#A3CC39" d="M16,7c0,0.1-0.1,0.2-0.1,0.3c0,0.1,0,0.2,0.1,0.3c0.1,0.1,0.1,0.2,0.2,0.2c0,0,0.1,0,0.1-0.1
			c0.1,0,0.1-0.1,0.1-0.2c0-0.1,0-0.2,0-0.3c0-0.2,0-0.3-0.1-0.4c-0.1-0.1-0.1-0.1-0.2-0.1c0,0-0.1,0-0.1,0C16,6.8,16,6.9,16,7z
			 M16.2,6.8C16.2,6.8,16.3,6.8,16.2,6.8c0.1,0,0.1,0.1,0.1,0.1c0,0.1,0,0.2,0,0.3c0,0.2,0,0.3,0,0.3c0,0.1,0,0.1-0.1,0.1
			c0,0-0.1,0-0.1,0c-0.1,0-0.1,0-0.1-0.1c0-0.1,0-0.2,0-0.3c0-0.1,0-0.2,0-0.3C16.1,6.9,16.1,6.9,16.2,6.8
			C16.1,6.8,16.2,6.8,16.2,6.8z"/>
		<path fill="#A3CC39" d="M10.4,9.1C10.4,9.1,10.4,9.1,10.4,9.1c0,0-0.1,0-0.1,0v0h0.4v0c0,0-0.1,0-0.1,0c0,0,0,0,0,0c0,0,0,0,0-0.1
			V8.2h0l-0.2,0.1l0,0c0,0,0.1,0,0.1,0c0,0,0,0,0,0c0,0,0,0,0,0c0,0,0,0.1,0,0.1V9.1C10.4,9,10.4,9.1,10.4,9.1z"/>
		<path fill="#A3CC39" d="M11.9,9.2c0,0,0.1,0,0.2-0.1c0.1,0,0.1-0.1,0.1-0.2c0-0.1,0.1-0.2,0.1-0.3c0-0.2,0-0.3-0.1-0.4
			c-0.1-0.1-0.1-0.1-0.2-0.1c0,0-0.1,0-0.1,0c-0.1,0-0.1,0.1-0.1,0.2s-0.1,0.2-0.1,0.3c0,0.1,0,0.3,0.1,0.3
			C11.7,9.1,11.8,9.2,11.9,9.2z M11.8,8.4c0-0.1,0-0.2,0.1-0.2c0,0,0.1,0,0.1,0c0,0,0.1,0,0.1,0c0,0,0.1,0.1,0.1,0.1
			c0,0.1,0,0.2,0,0.3c0,0.2,0,0.3,0,0.4c0,0.1,0,0.1-0.1,0.1c0,0-0.1,0-0.1,0c-0.1,0-0.1,0-0.1-0.1c0-0.1-0.1-0.2-0.1-0.3
			C11.7,8.6,11.7,8.5,11.8,8.4z"/>
		<path fill="#A3CC39" d="M13,8.7c0,0.1,0,0.3,0.1,0.3c0.1,0.1,0.1,0.2,0.2,0.2c0,0,0.1,0,0.2-0.1S13.6,9,13.6,9
			c0-0.1,0.1-0.2,0.1-0.3c0-0.2,0-0.3-0.1-0.4c-0.1-0.1-0.1-0.1-0.2-0.1c0,0-0.1,0-0.1,0c-0.1,0-0.1,0.1-0.1,0.2
			C13,8.5,13,8.6,13,8.7z M13.2,8.4c0-0.1,0-0.2,0.1-0.2c0,0,0.1,0,0.1,0c0,0,0.1,0,0.1,0c0,0,0.1,0.1,0.1,0.1c0,0.1,0,0.2,0,0.3
			c0,0.2,0,0.3,0,0.4c0,0.1,0,0.1-0.1,0.1c0,0-0.1,0-0.1,0c-0.1,0-0.1,0-0.1-0.1c0-0.1-0.1-0.2-0.1-0.3C13.2,8.6,13.2,8.5,13.2,8.4z
			"/>
		<path fill="#A3CC39" d="M14.6,8.3C14.6,8.3,14.6,8.3,14.6,8.3c0.1,0,0.1,0,0.1,0c0,0,0,0,0,0c0,0,0,0.1,0,0.1V9c0,0.1,0,0.1,0,0.1
			c0,0,0,0,0,0c0,0,0,0-0.1,0v0H15v0c0,0-0.1,0-0.1,0c0,0,0,0,0,0c0,0,0-0.1,0-0.1V8.1h0L14.6,8.3L14.6,8.3z"/>
		<path fill="#A3CC39" d="M16.2,8.1c0,0-0.1,0-0.1,0c-0.1,0-0.1,0.1-0.1,0.2c0,0.1-0.1,0.2-0.1,0.3c0,0.1,0,0.3,0.1,0.3
			c0.1,0.1,0.1,0.2,0.2,0.2c0,0,0.1,0,0.2-0.1c0.1,0,0.1-0.1,0.1-0.2c0-0.1,0.1-0.2,0.1-0.3c0-0.2,0-0.3-0.1-0.4
			C16.4,8.2,16.3,8.1,16.2,8.1z M16.4,9c0,0.1,0,0.1-0.1,0.1c0,0-0.1,0-0.1,0c-0.1,0-0.1,0-0.1-0.1C16,8.9,16,8.8,16,8.7
			c0-0.1,0-0.2,0-0.3c0-0.1,0-0.2,0.1-0.2c0,0,0.1,0,0.1,0s0.1,0,0.1,0c0,0,0.1,0.1,0.1,0.1c0,0.1,0,0.2,0,0.3
			C16.4,8.8,16.4,8.9,16.4,9z"/>
		<path fill="#A3CC39" d="M9.1,9.6L8.9,9.7l0,0c0,0,0.1,0,0.1,0c0,0,0,0,0,0c0,0,0,0,0,0c0,0,0,0.1,0,0.1v0.5c0,0.1,0,0.1,0,0.1
			c0,0,0,0,0,0c0,0,0,0-0.1,0v0h0.4v0c0,0-0.1,0-0.1,0s0,0,0,0c0,0,0,0,0-0.1L9.1,9.6L9.1,9.6L9.1,9.6z"/>
		<path fill="#A3CC39" d="M10.5,10.6c0,0,0.1,0,0.2-0.1c0.1,0,0.1-0.1,0.1-0.2c0-0.1,0.1-0.2,0.1-0.3c0-0.2,0-0.3-0.1-0.4
			c-0.1-0.1-0.1-0.1-0.2-0.1c0,0-0.1,0-0.1,0c-0.1,0-0.1,0.1-0.1,0.2c0,0.1-0.1,0.2-0.1,0.3c0,0.1,0,0.3,0.1,0.3
			C10.3,10.6,10.4,10.6,10.5,10.6z M10.3,9.9c0-0.1,0-0.2,0.1-0.2c0,0,0.1,0,0.1,0c0,0,0.1,0,0.1,0c0,0,0.1,0.1,0.1,0.1
			c0,0.1,0,0.2,0,0.3c0,0.2,0,0.3,0,0.4c0,0.1,0,0.1-0.1,0.1c0,0-0.1,0-0.1,0c-0.1,0-0.1,0-0.1-0.1c0-0.1-0.1-0.2-0.1-0.3
			C10.3,10,10.3,10,10.3,9.9z"/>
		<path fill="#A3CC39" d="M11.7,10.5c0.1,0.1,0.2,0.2,0.3,0.2c0.1,0,0.1,0,0.2-0.1c0.1,0,0.1-0.1,0.1-0.2s0.1-0.2,0.1-0.3
			c0-0.2,0-0.3-0.1-0.4c-0.1-0.1-0.1-0.1-0.2-0.1c0,0-0.1,0-0.1,0.1c-0.1,0-0.1,0.1-0.1,0.2c0,0.1-0.1,0.2-0.1,0.3
			C11.6,10.2,11.6,10.4,11.7,10.5z M11.7,9.9c0-0.1,0-0.2,0.1-0.2c0,0,0.1,0,0.1,0s0.1,0,0.1,0c0,0,0.1,0.1,0.1,0.1
			c0,0.1,0,0.2,0,0.3c0,0.2,0,0.3,0,0.4c0,0.1,0,0.1-0.1,0.1c0,0-0.1,0-0.1,0c-0.1,0-0.1,0-0.1-0.1c0-0.1-0.1-0.2-0.1-0.3
			C11.7,10,11.7,9.9,11.7,9.9z"/>
		<path fill="#A3CC39" d="M13.3,10.6C13.3,10.6,13.3,10.6,13.3,10.6c0,0-0.1,0-0.1,0v0h0.4v0c0,0-0.1,0-0.1,0c0,0,0,0,0,0
			c0,0,0-0.1,0-0.1V9.6h0l-0.3,0.1l0,0c0,0,0.1,0,0.1,0c0,0,0,0,0,0c0,0,0,0,0,0c0,0,0,0.1,0,0.2v0.6C13.3,10.5,13.3,10.5,13.3,10.6
			z"/>
		<path fill="#A3CC39" d="M14.6,9.7C14.6,9.7,14.7,9.7,14.6,9.7c0.1,0,0.1,0,0.1,0c0,0,0,0,0,0c0,0,0,0.1,0,0.2v0.6
			c0,0.1,0,0.1,0,0.1s0,0,0,0c0,0,0,0-0.1,0v0H15v0c0,0-0.1,0-0.1,0c0,0,0,0,0,0c0,0,0-0.1,0-0.1V9.6h0L14.6,9.7L14.6,9.7z"/>
		<path fill="#A3CC39" d="M16.2,9.6c-0.1,0-0.1,0-0.1,0.1c-0.1,0-0.1,0.1-0.1,0.2s-0.1,0.2-0.1,0.3c0,0.1,0,0.3,0.1,0.4
			c0.1,0.1,0.2,0.2,0.3,0.2c0,0,0.1,0,0.1-0.1c0.1-0.2,0.1-0.5,0.2-0.7c0-0.1,0-0.2-0.1-0.2C16.4,9.6,16.3,9.6,16.2,9.6z M16.4,10.4
			c0,0.1,0,0.1-0.1,0.1c0,0-0.1,0-0.1,0c-0.1,0-0.1,0-0.1-0.1c0-0.1-0.1-0.2-0.1-0.4c0-0.1,0-0.2,0-0.3c0-0.1,0-0.2,0.1-0.2
			c0,0,0.1,0,0.1,0c0,0,0.1,0,0.1,0c0,0,0.1,0.1,0.1,0.1c0,0.1,0,0.2,0,0.3C16.4,10.2,16.4,10.3,16.4,10.4z"/>
		<path fill="#A3CC39" d="M7.8,11.5c0,0.2,0,0.3,0,0.3c0,0.1,0,0.1-0.1,0.1c0,0-0.1,0-0.1,0c0,0,0,0,0,0c0,0,0,0,0,0c0,0,0,0,0,0
			c0,0,0.1,0,0.1-0.1c0.1,0,0.1-0.1,0.1-0.2c0-0.1,0-0.2,0-0.3c0-0.1,0-0.2-0.1-0.3C7.8,11.3,7.8,11.4,7.8,11.5
			C7.8,11.5,7.8,11.5,7.8,11.5z"/>
		<path fill="#A3CC39" d="M8.9,11.2C8.9,11.1,8.9,11.1,8.9,11.2c0.1,0,0.1,0,0.1,0c0,0,0,0,0,0c0,0,0,0.1,0,0.1v0.5
			C9,11.9,9,12,9,12c0,0,0,0,0,0c0,0,0,0-0.1,0v0h0.4v0c0,0-0.1,0-0.1,0c0,0,0,0,0,0c0,0,0-0.1,0-0.1V11h0L8.9,11.2L8.9,11.2z"/>
		<path fill="#A3CC39" d="M10.5,11l-0.3,0.1l0,0c0,0,0.1,0,0.1,0c0,0,0,0,0,0c0,0,0,0,0,0c0,0,0,0.1,0,0.2v0.6c0,0.1,0,0.1,0,0.1
			s0,0,0,0c0,0,0,0-0.1,0v0h0.4v0c0,0-0.1,0-0.1,0c0,0,0,0,0,0c0,0,0-0.1,0-0.1L10.5,11L10.5,11z"/>
		<path fill="#A3CC39" d="M11.7,11.9c0.1,0.1,0.2,0.2,0.3,0.2c0.1,0,0.1,0,0.2-0.1c0.1,0,0.1-0.1,0.1-0.2c0-0.1,0.1-0.2,0.1-0.3
			c0-0.2,0-0.3-0.1-0.4C12.1,11,12,11,11.9,11c-0.1,0-0.1,0-0.2,0.1c-0.1,0-0.1,0.1-0.2,0.2c0,0.1-0.1,0.2-0.1,0.3
			C11.6,11.7,11.6,11.8,11.7,11.9z M11.7,11.3c0-0.1,0-0.2,0.1-0.2c0,0,0.1,0,0.1,0c0,0,0.1,0,0.1,0c0,0,0.1,0.1,0.1,0.1
			c0,0.1,0,0.2,0,0.3c0,0.2,0,0.3,0,0.4c0,0.1,0,0.1-0.1,0.1c0,0-0.1,0-0.1,0c-0.1,0-0.1,0-0.1-0.1c0-0.1-0.1-0.2-0.1-0.4
			C11.7,11.5,11.7,11.4,11.7,11.3z"/>
		<path fill="#A3CC39" d="M13.7,11.5c0-0.2,0-0.3-0.1-0.4C13.5,11,13.4,11,13.3,11c-0.1,0-0.1,0-0.2,0.1c-0.1,0-0.1,0.1-0.2,0.2
			c0,0.1-0.1,0.2-0.1,0.3c0,0.2,0,0.3,0.1,0.4c0.1,0.1,0.2,0.2,0.3,0.2c0.1,0,0.1,0,0.2-0.1c0.1,0,0.1-0.1,0.1-0.2
			C13.7,11.8,13.7,11.7,13.7,11.5z M13.5,11.9c0,0.1,0,0.1-0.1,0.1c0,0-0.1,0-0.1,0c-0.1,0-0.1,0-0.1-0.1c0-0.1-0.1-0.2-0.1-0.4
			c0-0.1,0-0.2,0-0.3c0-0.1,0-0.2,0.1-0.2c0,0,0.1-0.1,0.1-0.1c0,0,0.1,0,0.1,0c0,0,0.1,0.1,0.1,0.1c0,0.1,0,0.2,0,0.3
			C13.6,11.7,13.5,11.8,13.5,11.9z"/>
		<path fill="#A3CC39" d="M14.7,12C14.7,12,14.7,12,14.7,12c0,0-0.1,0-0.1,0v0H15v0c-0.1,0-0.1,0-0.1,0c0,0,0,0,0,0c0,0,0-0.1,0-0.1
			V11h0l-0.3,0.1l0,0c0,0,0.1,0,0.1,0c0,0,0,0,0,0c0,0,0,0,0,0c0,0,0,0.1,0,0.2v0.6C14.7,12,14.7,12,14.7,12z"/>
		<path fill="#A3CC39" d="M16,11.1L16,11.1C16,11.1,16.1,11.1,16,11.1c0.1,0,0.1,0,0.1,0c0,0,0,0,0,0v0c0-0.1,0-0.1,0.1-0.2L16,11.1
			z"/>
		<path fill="#A3CC39" d="M7.4,13.3c0.1,0.1,0.1,0.2,0.2,0.2c0,0,0.1,0,0.2-0.1c0.1,0,0.1-0.1,0.1-0.2S8,13.1,8,13
			c0-0.2,0-0.3-0.1-0.4c-0.1-0.1-0.1-0.1-0.2-0.1c0,0-0.1,0-0.1,0c0,0,0,0,0,0c-0.1,0.2-0.1,0.4-0.1,0.7C7.3,13.3,7.4,13.3,7.4,13.3
			z M7.5,12.7c0-0.1,0-0.2,0.1-0.2c0,0,0.1,0,0.1,0c0,0,0.1,0,0.1,0c0,0,0.1,0.1,0.1,0.1c0,0.1,0,0.2,0,0.3c0,0.2,0,0.3,0,0.4
			c0,0.1,0,0.1-0.1,0.1c0,0-0.1,0-0.1,0c-0.1,0-0.1,0-0.1-0.1c0-0.1-0.1-0.2-0.1-0.3C7.4,12.9,7.4,12.8,7.5,12.7z"/>
		<path fill="#A3CC39" d="M9.4,13c0-0.2,0-0.3-0.1-0.4c-0.1-0.1-0.1-0.1-0.2-0.1c0,0-0.1,0-0.1,0.1c-0.1,0-0.1,0.1-0.1,0.2
			c0,0.1-0.1,0.2-0.1,0.3c0,0.1,0,0.3,0.1,0.4c0.1,0.1,0.2,0.2,0.3,0.2c0.1,0,0.1,0,0.2-0.1s0.1-0.1,0.1-0.2
			C9.4,13.2,9.4,13.1,9.4,13z M9.2,13.3c0,0.1,0,0.1-0.1,0.1c0,0-0.1,0-0.1,0c-0.1,0-0.1,0-0.1-0.1c0-0.1-0.1-0.2-0.1-0.3
			c0-0.1,0-0.2,0-0.3c0-0.1,0-0.2,0.1-0.2c0,0,0.1,0,0.1,0c0,0,0.1,0,0.1,0c0,0,0.1,0.1,0.1,0.1c0,0.1,0,0.2,0,0.3
			C9.2,13.1,9.2,13.2,9.2,13.3z"/>
		<path fill="#A3CC39" d="M10.3,12.6C10.3,12.5,10.4,12.5,10.3,12.6c0.1,0,0.1,0,0.1,0c0,0,0,0,0,0c0,0,0,0.1,0,0.2v0.6
			c0,0.1,0,0.1,0,0.1c0,0,0,0,0,0c0,0,0,0-0.1,0v0h0.4v0c0,0-0.1,0-0.1,0c0,0,0,0,0,0c0,0,0-0.1,0-0.1v-0.9h0L10.3,12.6L10.3,12.6z"
			/>
		<path fill="#A3CC39" d="M11.7,13.4c0.1,0.1,0.2,0.2,0.3,0.2c0.1,0,0.1,0,0.2-0.1c0.1,0,0.1-0.1,0.1-0.2c0-0.1,0.1-0.2,0.1-0.3
			c0-0.2,0-0.3-0.1-0.4c-0.1-0.1-0.1-0.1-0.2-0.1c-0.1,0-0.1,0-0.2,0.1c-0.1,0-0.1,0.1-0.2,0.2c0,0.1-0.1,0.2-0.1,0.3
			C11.6,13.1,11.6,13.3,11.7,13.4z M11.7,12.7c0-0.1,0-0.2,0.1-0.2c0,0,0.1-0.1,0.1-0.1c0,0,0.1,0,0.1,0c0,0,0.1,0.1,0.1,0.1
			c0,0.1,0,0.2,0,0.3c0,0.2,0,0.3,0,0.4c0,0.1,0,0.1-0.1,0.1c0,0-0.1,0-0.1,0c-0.1,0-0.1,0-0.1-0.1c0-0.1-0.1-0.2-0.1-0.4
			C11.7,12.9,11.7,12.8,11.7,12.7z"/>
		<path fill="#A3CC39" d="M13.3,13.5C13.3,13.5,13.3,13.5,13.3,13.5c0,0-0.1,0-0.1,0v0h0.4v0c-0.1,0-0.1,0-0.1,0c0,0,0,0,0,0
			c0,0,0-0.1,0-0.1v-1h0l-0.3,0.1l0,0c0,0,0.1,0,0.1,0c0,0,0,0,0,0s0,0,0,0c0,0,0,0.1,0,0.2v0.6C13.3,13.4,13.3,13.5,13.3,13.5z"/>
		<path fill="#A3CC39" d="M14.8,12.4c-0.1,0-0.1,0-0.2,0.1c-0.1,0-0.1,0.1-0.2,0.2c0,0.1-0.1,0.2-0.1,0.3c0,0.2,0,0.3,0.1,0.4
			c0,0.1,0.1,0.1,0.1,0.2c0,0,0,0,0.1-0.1c0,0,0,0,0-0.1c0-0.1-0.1-0.2-0.1-0.4c0-0.1,0-0.2,0-0.3c0-0.1,0-0.2,0.1-0.2
			C14.7,12.4,14.8,12.4,14.8,12.4C14.8,12.4,14.9,12.4,14.8,12.4c0.1,0.1,0.2,0.2,0.2,0.2c0,0.1,0,0.2,0,0.3c0,0.1,0,0.2,0,0.2
			c0.1-0.1,0.1-0.2,0.2-0.2c0-0.2,0-0.3-0.1-0.4C14.9,12.4,14.9,12.4,14.8,12.4z"/>
		<path fill="#A3CC39" d="M7.6,14.9c0,0,0.1,0,0.2-0.1c0.1,0,0.1-0.1,0.1-0.2c0-0.1,0.1-0.2,0.1-0.3c0-0.2,0-0.3-0.1-0.4
			c-0.1-0.1-0.1-0.1-0.2-0.1c0,0-0.1,0-0.1,0c-0.1,0-0.1,0.1-0.1,0.2c0,0.1-0.1,0.2-0.1,0.3c0,0.1,0,0.3,0.1,0.3
			C7.4,14.9,7.5,14.9,7.6,14.9z M7.5,14.2c0-0.1,0-0.2,0.1-0.2c0,0,0.1,0,0.1,0c0,0,0.1,0,0.1,0c0,0,0.1,0.1,0.1,0.1
			c0,0.1,0,0.2,0,0.3c0,0.2,0,0.3,0,0.4c0,0.1,0,0.1-0.1,0.1c0,0-0.1,0-0.1,0c-0.1,0-0.1,0-0.1-0.1c0-0.1-0.1-0.2-0.1-0.3
			C7.4,14.4,7.4,14.3,7.5,14.2z"/>
		<path fill="#A3CC39" d="M9,14.9C9,14.9,9,14.9,9,14.9c0,0-0.1,0-0.1,0v0h0.4v0c0,0-0.1,0-0.1,0c0,0,0,0,0,0c0,0,0-0.1,0-0.1v-0.9
			h0L8.8,14l0,0c0,0,0.1,0,0.1,0c0,0,0,0,0,0s0,0,0,0c0,0,0,0.1,0,0.2v0.6C9,14.8,9,14.9,9,14.9z"/>
		<path fill="#A3CC39" d="M10.4,14.9C10.4,14.9,10.4,14.9,10.4,14.9c0,0-0.1,0-0.1,0v0h0.4v0c-0.1,0-0.1,0-0.1,0c0,0,0,0,0,0
			c0,0,0-0.1,0-0.1v-0.9h0L10.3,14l0,0c0,0,0.1,0,0.1,0c0,0,0,0,0,0c0,0,0,0,0,0c0,0,0,0.1,0,0.2v0.6C10.4,14.8,10.4,14.9,10.4,14.9
			z"/>
		<path fill="#A3CC39" d="M11.6,14.8c0.1,0.1,0.2,0.2,0.3,0.2c0.1,0,0.1,0,0.2-0.1c0.1,0,0.1-0.1,0.1-0.2c0-0.1,0.1-0.2,0.1-0.3
			c0-0.2,0-0.3-0.1-0.4c-0.1-0.1-0.2-0.1-0.2-0.1c-0.1,0-0.1,0-0.2,0.1c-0.1,0-0.1,0.1-0.2,0.2c0,0.1-0.1,0.2-0.1,0.3
			C11.5,14.6,11.6,14.7,11.6,14.8z M11.7,14.1c0-0.1,0-0.2,0.1-0.2c0,0,0.1-0.1,0.1-0.1c0,0,0.1,0,0.1,0c0,0,0.1,0.1,0.1,0.1
			c0,0.1,0,0.2,0,0.3c0,0.2,0,0.3,0,0.4c0,0.1,0,0.1-0.1,0.1c0,0-0.1,0-0.1,0c-0.1,0-0.1,0-0.1-0.1c0-0.1-0.1-0.2-0.1-0.4
			C11.7,14.3,11.7,14.2,11.7,14.1z"/>
		<path fill="#A3CC39" d="M13.4,13.8l-0.3,0.1l0,0c0,0,0.1,0,0.1,0c0,0,0,0,0,0c0,0,0,0,0,0c0,0,0,0.1,0,0.2v0.5
			c0.1,0,0.1-0.1,0.1-0.1L13.4,13.8L13.4,13.8z"/>
		<path fill="#A3CC39" d="M7.8,15.4c-0.1-0.1-0.1-0.1-0.2-0.1c0,0-0.1,0-0.1,0c-0.1,0-0.1,0.1-0.1,0.2c0,0.1,0,0.2,0,0.3
			c0,0,0,0,0.1,0c0-0.1,0-0.1,0-0.2c0-0.1,0-0.2,0.1-0.2c0,0,0.1,0,0.1,0c0,0,0.1,0,0.1,0C7.7,15.4,7.8,15.5,7.8,15.4
			c0,0.2,0,0.3,0,0.4c0,0,0,0,0,0c0,0,0.1,0,0.1,0c0,0,0,0,0,0C7.9,15.7,7.9,15.5,7.8,15.4z"/>
		<path fill="#A3CC39" d="M9.3,15.4c-0.1-0.1-0.1-0.1-0.2-0.1c-0.1,0-0.1,0-0.1,0.1c-0.1,0-0.1,0.1-0.1,0.2c0,0.1-0.1,0.2-0.1,0.3
			c0,0,0,0,0,0.1c0,0,0.1,0,0.1,0l0,0c0,0,0,0,0-0.1c0-0.1,0-0.2,0-0.3c0-0.1,0-0.2,0.1-0.2c0,0,0.1,0,0.1,0c0,0,0.1,0,0.1,0
			C9.2,15.4,9.2,15.5,9.3,15.4c0,0.2,0,0.3,0,0.4c0,0,0,0.1,0,0.1c0,0,0.1,0,0.1,0c0,0,0,0,0-0.1C9.4,15.7,9.4,15.5,9.3,15.4z"/>
		<path fill="#A3CC39" d="M10.5,15.3l-0.3,0.1l0,0c0,0,0.1,0,0.1,0c0,0,0,0,0,0c0,0,0,0,0,0c0,0,0,0.1,0,0.2v0.2c0,0,0.1,0,0.1,0
			L10.5,15.3L10.5,15.3L10.5,15.3z"/>
		<path fill="#A3CC39" d="M12,15.2l-0.3,0.1l0,0c0,0,0.1,0,0.1,0c0,0,0,0,0,0C11.9,15.4,11.9,15.3,12,15.2L12,15.2L12,15.2L12,15.2z
			"/>
	</g>
</g>
</svg>
