<?xml version="1.0" encoding="utf-8"?>
<!-- Generator: Adobe Illustrator 22.1.0, SVG Export Plug-In . SVG Version: 6.00 Build 0)  -->
<svg version="1.1" id="Layer_1" xmlns="http://www.w3.org/2000/svg" xmlns:xlink="http://www.w3.org/1999/xlink" x="0px" y="0px"
	 width="23.7px" height="23.7px" viewBox="0 0 23.7 23.7" style="enable-background:new 0 0 23.7 23.7;" xml:space="preserve">
<g>
	<path d="M8.7,3.6l0.1,0l0,0l0,0l0.1,0c2.2,0,4.3,1.3,5.2,3.3c0.2,0.4,0.3,0.7,0.4,1.1l0,0c0.1,0.4,0.1,0.8,0.1,1.2
		c0,1.3-0.5,2.5-1.3,3.4c-0.4,0.4-0.8,0.7-1.2,1c-0.3,0.2-0.7,0.4-1,0.5c-0.4,0.1-0.7,0.2-1.1,0.3c-0.4,0.1-0.8,0.1-1.2,0.1
		c-0.2,0-0.4,0-0.6,0c-0.2,0-0.4,0-0.6-0.1l-0.2,0c-0.3-0.1-0.6-0.2-1-0.3c-0.4-0.2-0.7-0.4-1-0.6l-1-0.9l-1,1
		c-0.1,0.1-0.2,0.2-0.3,0.2c0-0.3,0-0.6,0-1l0-3.6c0-0.1,0-0.1,0-0.2C3.2,6,5.7,3.6,8.7,3.6L8.7,3.6 M8.7,2.1c-3.8,0-6.9,3-7,6.9
		c0,0.1,0,0.2,0,0.2v3.6c0,2.6-1,3.2-1,3.2c0.1,0,0.2,0,0.3,0c1.3,0,2.5-0.5,3.5-1.4c0.4,0.4,0.9,0.7,1.5,0.9c0.5,0.2,1,0.3,1.5,0.4
		l0,0C7.7,16,7.9,16,8.1,16c0.2,0,0.5,0,0.7,0c0,0,0,0,0,0c0.5,0,1,0,1.5-0.1c0.5-0.1,0.9-0.2,1.4-0.4c0.4-0.2,0.9-0.4,1.3-0.6
		c0.6-0.4,1.1-0.8,1.6-1.3c1.1-1.2,1.7-2.8,1.7-4.5c0-0.5-0.1-1-0.2-1.5l0,0c0,0,0,0,0,0c0,0,0,0,0,0l0,0c-0.1-0.5-0.3-1-0.5-1.5
		c-1.2-2.5-3.8-4.1-6.6-4.1c0,0-0.1,0-0.1,0C8.8,2.1,8.7,2.1,8.7,2.1L8.7,2.1z"/>
</g>
<g>
	<path d="M15,9.1c3,0,5.4,2.4,5.5,5.4c0,0.1,0,0.1,0,0.2v3.6c0,0.4,0,0.7,0,1c-0.1-0.1-0.2-0.2-0.3-0.2l-1-1l-1,0.9
		c-0.3,0.3-0.7,0.5-1,0.6c-0.3,0.1-0.6,0.2-0.9,0.3L16,20c-0.2,0-0.4,0.1-0.6,0.1c-0.2,0-0.4,0-0.6,0c-0.4,0-0.8,0-1.2-0.1
		c-0.4-0.1-0.8-0.2-1.1-0.3c-0.3-0.1-0.7-0.3-1-0.5c-0.5-0.3-0.9-0.6-1.2-1C9.5,17.2,9,16,9,14.7c0-0.4,0-0.8,0.1-1.1l0,0l0,0
		c0.1-0.4,0.2-0.8,0.4-1.1c1-2,3-3.3,5.2-3.3l0.1,0l0,0l0,0L15,9.1 M15,7.6c0,0-0.1,0-0.1,0c0,0-0.1,0-0.1,0c-2.8,0-5.4,1.6-6.6,4.1
		c-0.2,0.5-0.4,1-0.5,1.5l0,0c0,0,0,0,0,0c0,0,0,0,0,0l0,0c-0.1,0.5-0.2,1-0.2,1.5c0,1.6,0.6,3.2,1.7,4.5c0.5,0.5,1,1,1.6,1.3
		c0.4,0.2,0.8,0.5,1.3,0.6c0.4,0.2,0.9,0.3,1.4,0.4c0.5,0.1,1,0.1,1.5,0.1c0,0,0,0,0,0c0.2,0,0.5,0,0.7,0c0.2,0,0.5,0,0.7-0.1l0,0
		c0.5-0.1,1-0.2,1.5-0.4c0.6-0.2,1.1-0.5,1.5-0.9c0.9,0.9,2.2,1.4,3.5,1.4c0.1,0,0.2,0,0.3,0c0,0-1-0.6-1-3.2v-3.6
		c0-0.1,0-0.2,0-0.2C21.9,10.7,18.8,7.6,15,7.6L15,7.6z"/>
</g>
</svg>
