<?xml version="1.0" encoding="UTF-8"?>
<svg enable-background="new 0 0 24 24" version="1.1" viewBox="0 0 24 24" xml:space="preserve" xmlns="http://www.w3.org/2000/svg">
			<path d="m16 5c-1.2-2.7-4-4.6-7.2-4.6-4.4 0-7.6 3.5-7.6 7.9v4c0 2.8-1 3.6-1 3.6 1.3 0.1 2.9-0.4 4-1.5 0.4 0.4 1 0.8 1.6 1 0.5 0.2 1 0.4 1.6 0.5 0-0.2-0.1-0.5-0.1-0.7v-0.7c0-1.6 0.5-3.2 1.3-4.4 0.3-0.4 0.6-0.8 1-1.2 0.2-0.2 0.4-0.3 0.6-0.5 0.4-0.3 0.8-0.6 1.2-0.8s0.9-0.4 1.4-0.6c0.7-0.2 1.5-0.3 2.3-0.3h0.7c0.2 0 0.5 0.1 0.7 0.1-0.1-0.8-0.3-1.3-0.5-1.8z" fill="#26A7DF"/>
		<path d="m22.7 18.3v-4c0-3.3-1.8-6-4.6-7.2-0.5-0.2-1-0.4-1.6-0.5 0.1 0.5 0.2 1.1 0.2 1.7 0 1.9-0.7 3.6-1.8 4.9-0.5 0.6-1 1-1.7 1.5-0.4 0.3-0.9 0.5-1.3 0.7-0.5 0.2-1 0.3-1.5 0.4s-1 0.2-1.6 0.2h-0.7c-0.3 0-0.5-0.1-0.7-0.1 0.1 0.6 0.3 1.1 0.5 1.6 1.2 2.8 3.9 4.6 7.2 4.6 1.8 0 3.5-0.5 4.6-1.6 1 1 2.9 1.8 4.1 1.5 0-0.1-1.1-0.7-1.1-3.7z" fill="#A3CC39"/>
		<path d="m15.1 6.5c-4.4 0-7.8 3.5-7.8 7.9 0 0.5 0.1 1 0.1 1.5 0.5 0.1 1 0.1 1.5 0.1 4.4 0 7.8-3.3 7.8-7.6 0-0.6-0.1-1.1-0.2-1.7-0.4-0.2-0.9-0.2-1.4-0.2z" fill="none"/>
		<path d="m16.3 8.2s-0.1 0 0 0h-0.2s-0.1 0.1-0.1 0.2v0.3c0 0.1 0 0.3 0.1 0.3 0 0.1 0.1 0.1 0.1 0.1h0.1l0.1-0.1v-0.4-0.3c-0.1 0-0.1-0.1-0.1-0.1z" fill="none"/>
		<path d="m13.4 11h-0.2s-0.1 0.1-0.1 0.2v0.3c0 0.2 0 0.3 0.1 0.4 0 0.1 0.1 0.1 0.1 0.1h0.1l0.1-0.1v-0.4-0.3c0-0.1 0-0.1-0.1-0.2z" fill="none"/>
		<path d="m13.3 9.1c0.1 0 0.1 0 0 0 0.2 0 0.2-0.1 0.2-0.1v-0.4-0.3c0-0.1 0-0.1-0.1-0.1h-0.1-0.1s-0.1 0.1-0.1 0.2v0.3c0 0.1 0 0.3 0.1 0.3 0 0.1 0.1 0.1 0.1 0.1z" fill="none"/>
		<path d="m11.9 10.6s0.1 0 0 0l0.2-0.2v-0.4-0.3c0-0.1 0-0.1-0.1-0.1h-0.1-0.1s-0.1 0.1-0.1 0.2v0.3c0 0.1 0 0.3 0.1 0.3 0 0.2 0.1 0.2 0.1 0.2z" fill="none"/>
		<path d="m9.1 12.5h-0.2s-0.1 0.1-0.1 0.2v0.3c0 0.1 0 0.3 0.1 0.3 0 0.1 0.1 0.1 0.1 0.1h0.1l0.1-0.1v-0.4-0.3s0-0.1-0.1-0.1z" fill="none"/>
		<path d="m10.5 10.6l0.2-0.2v-0.4-0.3c0-0.1 0-0.1-0.1-0.1h-0.1-0.1s-0.1 0.1-0.1 0.2v0.3c0 0.1 0 0.3 0.1 0.3 0 0.1 0 0.2 0.1 0.2z" fill="none"/>
		<path d="m7.6 14.9s0.1 0 0 0l0.2-0.2v-0.4-0.3c0-0.1 0-0.1-0.1-0.1h-0.1-0.1s-0.1 0.1-0.1 0.2v0.3c0 0.1 0 0.3 0.1 0.3 0 0.1 0.1 0.2 0.1 0.2z" fill="none"/>
		<path d="m7.6 13.4s0.1 0 0 0l0.2-0.2v-0.4-0.3c0-0.1 0-0.1-0.1-0.1h-0.1-0.1s-0.1 0.1-0.1 0.2v0.3c0 0.1 0 0.3 0.1 0.3 0 0.2 0.1 0.2 0.1 0.2z" fill="none"/>
		<path d="m11.9 9.1s0.1 0 0 0c0.1 0 0.2-0.1 0.2-0.1v-0.4-0.3c0-0.1 0-0.1-0.1-0.1h-0.1-0.1s-0.1 0.1-0.1 0.2v0.3c0 0.1 0 0.3 0.1 0.3 0 0.1 0.1 0.1 0.1 0.1z" fill="none"/>
		<path d="m11.9 13.5s0.1 0 0 0l0.2-0.2v-0.4-0.3c0-0.1 0-0.1-0.1-0.1h-0.1s-0.1 0-0.1 0.1c0 0-0.1 0.1-0.1 0.2v0.3c0 0.2 0 0.3 0.1 0.4h0.1z" fill="none"/>
		<path d="m11.9 12.1s0.1-0.1 0 0l0.2-0.2v-0.4-0.3c0-0.1 0-0.1-0.1-0.1h-0.1s-0.1 0-0.1 0-0.1 0.1-0.1 0.2v0.3c0 0.2 0 0.3 0.1 0.4l0.1 0.1z" fill="none"/>
		<path d="m16 7.2v0.3c0 0.1 0.1 0.1 0.1 0.1h0.1s0-0.1 0.1-0.1v-0.3-0.3c0-0.1 0-0.1-0.1-0.1h-0.1-0.1s-0.1 0.1-0.1 0.2c0.2 0.1 0.1 0.2 0.1 0.2z" fill="none"/>
		<path d="m11.9 15s0.1-0.1 0 0c0.1-0.1 0.2-0.1 0.2-0.2v-0.4-0.3c0-0.1 0-0.1-0.1-0.1h-0.1s-0.1 0-0.1 0.1c0 0-0.1 0.1-0.1 0.2v0.3c0 0.2 0 0.3 0.1 0.4 0-0.1 0 0 0.1 0z" fill="none"/>
		<path d="m16.3 9.6s-0.1 0 0 0h-0.2s-0.1 0.1-0.1 0.2v0.3c0 0.1 0 0.3 0.1 0.4 0 0.1 0.1 0.1 0.1 0.1h0.1s0.1-0.1 0.1-0.1v-0.4-0.3c-0.1-0.1-0.1-0.2-0.1-0.2z" fill="none"/>
		<path d="m11.7 7.6c0.1 0.1 0.1 0.2 0.2 0.2 0 0 0.1 0 0.1-0.1 0 0 0.1-0.1 0.1-0.2v-0.3-0.2h-0.1v0.1 0.3c0 0.1 0 0.1-0.1 0.1h-0.1c0 0.2 0 0.1-0.1 0.1 0.1-0.1 0.1-0.2 0.1-0.3 0 0-0.1 0-0.1 0.1-0.1 0-0.1 0.1 0 0.2z" fill="#A3CC39"/>
		<path d="m13.4 6.7l-0.2 0.1h0.1v0.1 0.5 0.1h-0.1 0.4-0.1v-0.1l-0.1-0.7z" fill="#A3CC39"/>
		<path d="m14.8 6.7l-0.2 0.1h0.1v0.1 0.5 0.1h-0.1 0.4-0.1s0 0 0 0v-0.1l-0.1-0.7z" fill="#A3CC39"/>
		<path d="m16 7c0 0.1-0.1 0.2-0.1 0.3s0 0.2 0.1 0.3 0.1 0.2 0.2 0.2c0 0 0.1 0 0.1-0.1 0.1 0 0.1-0.1 0.1-0.2v-0.3c0-0.2 0-0.3-0.1-0.4s-0.1-0.1-0.2-0.1h-0.1v0.3zm0.2-0.2s0.1 0 0 0c0.1 0 0.1 0.1 0.1 0.1v0.3 0.3c0 0.1 0 0.1-0.1 0.1h-0.1c-0.1 0-0.1 0-0.1-0.1v-0.3-0.3c0.1 0 0.1 0 0.2-0.1-0.1 0 0 0 0 0z" fill="#A3CC39"/>
		<path d="m10.4 9.1h-0.1 0.4-0.1v-0.1-0.8l-0.2 0.1h0.1v0.1 0.7c-0.1-0.1-0.1 0-0.1 0z" fill="#A3CC39"/>
		<path d="m11.9 9.2s0.1 0 0.2-0.1c0.1 0 0.1-0.1 0.1-0.2s0.1-0.2 0.1-0.3c0-0.2 0-0.3-0.1-0.4s-0.1-0.1-0.2-0.1h-0.1c-0.1 0-0.1 0.1-0.1 0.2s-0.1 0.2-0.1 0.3 0 0.3 0.1 0.3c-0.1 0.2 0 0.3 0.1 0.3zm-0.1-0.8c0-0.1 0-0.2 0.1-0.2h0.1 0.1l0.1 0.1v0.3 0.4c0 0.1 0 0.1-0.1 0.1h-0.1c-0.1 0-0.1 0-0.1-0.1s-0.1-0.2-0.1-0.3c-0.1-0.1-0.1-0.2 0-0.3z" fill="#A3CC39"/>
		<path d="m13 8.7c0 0.1 0 0.3 0.1 0.3 0.1 0.1 0.1 0.2 0.2 0.2 0 0 0.1 0 0.2-0.1s0.1-0.1 0.1-0.1c0-0.1 0.1-0.2 0.1-0.3 0-0.2 0-0.3-0.1-0.4s-0.1-0.1-0.2-0.1h-0.1c-0.1 0-0.1 0.1-0.1 0.2-0.2 0.1-0.2 0.2-0.2 0.3zm0.2-0.3c0-0.1 0-0.2 0.1-0.2h0.1 0.1l0.1 0.1v0.3 0.4c0 0.1 0 0.1-0.1 0.1h-0.1c-0.1 0-0.1 0-0.1-0.1s-0.1-0.2-0.1-0.3v-0.3z" fill="#A3CC39"/>
		<path d="m14.6 8.3h0.1v0.1 0.6 0.1h-0.1 0.4-0.1v-0.1-0.9l-0.3 0.2z" fill="#A3CC39"/>
		<path d="m16.2 8.1h-0.1c-0.1 0-0.1 0.1-0.1 0.2s-0.1 0.2-0.1 0.3 0 0.3 0.1 0.3c0.1 0.1 0.1 0.2 0.2 0.2 0 0 0.1 0 0.2-0.1 0.1 0 0.1-0.1 0.1-0.2s0.1-0.2 0.1-0.3c0-0.2 0-0.3-0.1-0.4-0.1 0.1-0.2 0-0.3 0zm0.2 0.9c0 0.1 0 0.1-0.1 0.1h-0.1c-0.1 0-0.1 0-0.1-0.1-0.1-0.1-0.1-0.2-0.1-0.3v-0.3c0-0.1 0-0.2 0.1-0.2h0.1s0.1 0 0.1 0l0.1 0.1v0.3 0.4z" fill="#A3CC39"/>
		<path d="m9.1 9.6l-0.2 0.1h0.1v0.1 0.5 0.1h-0.1 0.4-0.1s0 0 0 0v-0.1l-0.1-0.7z" fill="#A3CC39"/>
		<path d="m10.5 10.6s0.1 0 0.2-0.1c0.1 0 0.1-0.1 0.1-0.2s0.1-0.2 0.1-0.3c0-0.2 0-0.3-0.1-0.4s-0.1-0.1-0.2-0.1h-0.1c-0.1 0-0.1 0.1-0.1 0.2s-0.1 0.2-0.1 0.3 0 0.3 0.1 0.3c-0.1 0.3 0 0.3 0.1 0.3zm-0.2-0.7c0-0.1 0-0.2 0.1-0.2h0.1 0.1l0.1 0.1v0.3 0.4c0 0.1 0 0.1-0.1 0.1h-0.1c-0.1 0-0.1 0-0.1-0.1s-0.1-0.2-0.1-0.3v-0.3z" fill="#A3CC39"/>
		<path d="m11.7 10.5c0.1 0.1 0.2 0.2 0.3 0.2s0.1 0 0.2-0.1c0.1 0 0.1-0.1 0.1-0.2s0.1-0.2 0.1-0.3c0-0.2 0-0.3-0.1-0.4s-0.1-0.1-0.2-0.1c0 0-0.1 0-0.1 0.1-0.1 0-0.1 0.1-0.1 0.2s-0.1 0.2-0.1 0.3c-0.2 0-0.2 0.2-0.1 0.3zm0-0.6c0-0.1 0-0.2 0.1-0.2h0.1s0.1 0 0.1 0l0.1 0.1v0.3 0.4c0 0.1 0 0.1-0.1 0.1h-0.1c-0.1 0-0.1 0-0.1-0.1s-0.1-0.2-0.1-0.3v-0.3z" fill="#A3CC39"/>
		<path d="m13.3 10.6h-0.1 0.4-0.1v-0.1-0.9l-0.3 0.1h0.1v0.2 0.6 0.1z" fill="#A3CC39"/>
		<path d="m14.6 9.7s0.1 0 0 0h0.1v0.2 0.6 0.1s0 0 0 0h-0.1 0.4-0.1v-0.1-0.9l-0.3 0.1z" fill="#A3CC39"/>
		<path d="m16.2 9.6c-0.1 0-0.1 0-0.1 0.1-0.1 0-0.1 0.1-0.1 0.2s-0.1 0.2-0.1 0.3 0 0.3 0.1 0.4 0.2 0.2 0.3 0.2c0 0 0.1 0 0.1-0.1 0.1-0.2 0.1-0.5 0.2-0.7 0-0.1 0-0.2-0.1-0.2-0.1-0.2-0.2-0.2-0.3-0.2zm0.2 0.8c0 0.1 0 0.1-0.1 0.1h-0.1c-0.1 0-0.1 0-0.1-0.1s-0.1-0.2-0.1-0.4v-0.3c0-0.1 0-0.2 0.1-0.2h0.1 0.1l0.1 0.1v0.3 0.5z" fill="#A3CC39"/>
		<path d="m7.8 11.5v0.3c0 0.1 0 0.1-0.1 0.1h-0.1s0.1 0 0.1-0.1c0.1 0 0.1-0.1 0.1-0.2v-0.3c0-0.1 0-0.2-0.1-0.3 0.1 0.3 0.1 0.4 0.1 0.5z" fill="#A3CC39"/>
		<path d="m8.9 11.2v0h0.1v0.1 0.5 0.2h-0.1 0.4-0.1v-0.1-0.9l-0.3 0.2z" fill="#A3CC39"/>
		<path d="m10.5 11l-0.3 0.1h0.1v0.2 0.6 0.1s0 0 0 0h-0.1 0.4-0.1v-0.1-0.9z" fill="#A3CC39"/>
		<path d="m11.7 11.9c0.1 0.1 0.2 0.2 0.3 0.2s0.1 0 0.2-0.1c0.1 0 0.1-0.1 0.1-0.2s0.1-0.2 0.1-0.3c0-0.2 0-0.3-0.1-0.4-0.2-0.1-0.3-0.1-0.4-0.1s-0.1 0-0.2 0.1c-0.1 0-0.1 0.1-0.2 0.2 0 0.1-0.1 0.2-0.1 0.3 0.2 0.1 0.2 0.2 0.3 0.3zm0-0.6c0-0.1 0-0.2 0.1-0.2h0.1 0.1l0.1 0.1v0.3 0.4c0 0.1 0 0.1-0.1 0.1h-0.1c-0.1 0-0.1 0-0.1-0.1s-0.1-0.2-0.1-0.4v-0.2z" fill="#A3CC39"/>
		<path d="m13.7 11.5c0-0.2 0-0.3-0.1-0.4s-0.2-0.1-0.3-0.1-0.1 0-0.2 0.1c-0.1 0-0.1 0.1-0.2 0.2 0 0.1-0.1 0.2-0.1 0.3 0 0.2 0 0.3 0.1 0.4s0.2 0.2 0.3 0.2 0.1 0 0.2-0.1c0.1 0 0.1-0.1 0.1-0.2 0.2-0.1 0.2-0.2 0.2-0.4zm-0.2 0.4c0 0.1 0 0.1-0.1 0.1h-0.1c-0.1 0-0.1 0-0.1-0.1s-0.1-0.2-0.1-0.4v-0.3c0-0.1 0-0.2 0.1-0.2l0.1-0.1h0.1l0.1 0.1v0.3c0.1 0.4 0 0.5 0 0.6z" fill="#A3CC39"/>
		<path d="m14.7 12h-0.1 0.4-0.1v-0.1-0.9l-0.3 0.1h0.1v0.2 0.6 0.1z" fill="#A3CC39"/>
		<path d="m16 11.1s0.1 0 0 0h0.1c0-0.1 0-0.1 0.1-0.2l-0.2 0.2z" fill="#A3CC39"/>
		<path d="m7.4 13.3c0.1 0.1 0.1 0.2 0.2 0.2 0 0 0.1 0 0.2-0.1 0.1 0 0.1-0.1 0.1-0.2s0.1-0.1 0.1-0.2c0-0.2 0-0.3-0.1-0.4s-0.1-0.1-0.2-0.1h-0.1c-0.1 0.2-0.1 0.4-0.1 0.7-0.2 0.1-0.1 0.1-0.1 0.1zm0.1-0.6c0-0.1 0-0.2 0.1-0.2h0.1 0.1l0.1 0.1v0.3 0.4c0 0.1 0 0.1-0.1 0.1h-0.1c-0.1 0-0.1 0-0.1-0.1s-0.1-0.2-0.1-0.3c-0.1-0.1-0.1-0.2 0-0.3z" fill="#A3CC39"/>
		<path d="m9.4 13c0-0.2 0-0.3-0.1-0.4s-0.1-0.1-0.2-0.1c0 0-0.1 0-0.1 0.1-0.1 0-0.1 0.1-0.1 0.2s-0.1 0.2-0.1 0.3 0 0.3 0.1 0.4 0.2 0.2 0.3 0.2 0.1 0 0.2-0.1 0.1-0.1 0.1-0.2c-0.1-0.2-0.1-0.3-0.1-0.4zm-0.2 0.3c0 0.1 0 0.1-0.1 0.1h-0.1c-0.1 0-0.1 0-0.1-0.1s-0.1-0.2-0.1-0.3v-0.3c0-0.1 0-0.2 0.1-0.2h0.1 0.1l0.1 0.1v0.3 0.4z" fill="#A3CC39"/>
		<path d="m10.3 12.6c0-0.1 0.1-0.1 0 0h0.1v0.2 0.6 0.1h-0.1 0.4-0.1v-0.1-0.9l-0.3 0.1z" fill="#A3CC39"/>
		<path d="m11.7 13.4c0.1 0.1 0.2 0.2 0.3 0.2s0.1 0 0.2-0.1c0.1 0 0.1-0.1 0.1-0.2s0.1-0.2 0.1-0.3c0-0.2 0-0.3-0.1-0.4s-0.1-0.1-0.2-0.1-0.1 0-0.2 0.1c-0.1 0-0.1 0.1-0.2 0.2 0 0.1-0.1 0.2-0.1 0.3 0 0 0 0.2 0.1 0.3zm0-0.7c0-0.1 0-0.2 0.1-0.2l0.1-0.1h0.1l0.1 0.1v0.3 0.4c0 0.1 0 0.1-0.1 0.1h-0.1c-0.1 0-0.1 0-0.1-0.1s-0.1-0.2-0.1-0.4v-0.1z" fill="#A3CC39"/>
		<path d="m13.3 13.5h-0.1 0.4-0.1v-0.1-1l-0.3 0.1h0.1s0 0 0 0v0.2 0.6 0.2z" fill="#A3CC39"/>
		<path d="m14.8 12.4c-0.1 0-0.1 0-0.2 0.1-0.1 0-0.1 0.1-0.2 0.2 0 0.1-0.1 0.2-0.1 0.3 0 0.2 0 0.3 0.1 0.4 0 0.1 0.1 0.1 0.1 0.2l0.1-0.1v-0.1c0-0.1-0.1-0.2-0.1-0.4v-0.3c0-0.1 0-0.2 0.1-0.2 0.1-0.1 0.2-0.1 0.2-0.1s0.1 0 0 0l0.2 0.2v0.3 0.2c0.1-0.1 0.1-0.2 0.2-0.2 0-0.2 0-0.3-0.1-0.4-0.2-0.1-0.2-0.1-0.3-0.1z" fill="#A3CC39"/>
		<path d="m7.6 14.9s0.1 0 0.2-0.1c0.1 0 0.1-0.1 0.1-0.2s0.1-0.2 0.1-0.3c0-0.2 0-0.3-0.1-0.4s-0.1-0.1-0.2-0.1h-0.1c-0.1 0-0.1 0.1-0.1 0.2s-0.1 0.2-0.1 0.3 0 0.3 0.1 0.3c-0.1 0.3 0 0.3 0.1 0.3zm-0.1-0.7c0-0.1 0-0.2 0.1-0.2h0.1 0.1l0.1 0.1v0.3 0.4c0 0.1 0 0.1-0.1 0.1h-0.1c-0.1 0-0.1 0-0.1-0.1s-0.1-0.2-0.1-0.3c-0.1-0.1-0.1-0.2 0-0.3z" fill="#A3CC39"/>
		<path d="m9 14.9h-0.1 0.4-0.1v-0.1-0.9l-0.4 0.1h0.1s0 0 0 0v0.2 0.6c0.1 0 0.1 0.1 0.1 0.1z" fill="#A3CC39"/>
		<path d="m10.4 14.9h-0.1 0.4-0.1v-0.1-0.9l-0.3 0.1h0.1v0.2 0.6 0.1z" fill="#A3CC39"/>
		<path d="m11.6 14.8c0.1 0.1 0.2 0.2 0.3 0.2s0.1 0 0.2-0.1c0.1 0 0.1-0.1 0.1-0.2s0.1-0.2 0.1-0.3c0-0.2 0-0.3-0.1-0.4s-0.2-0.1-0.2-0.1c-0.1 0-0.1 0-0.2 0.1-0.1 0-0.1 0.1-0.2 0.2 0 0.1-0.1 0.2-0.1 0.3s0.1 0.2 0.1 0.3zm0.1-0.7c0-0.1 0-0.2 0.1-0.2l0.1-0.1h0.1l0.1 0.1v0.3 0.4c0 0.1 0 0.1-0.1 0.1h-0.1c-0.1 0-0.1 0-0.1-0.1s-0.1-0.2-0.1-0.4v-0.1z" fill="#A3CC39"/>
		<path d="m13.4 13.8l-0.3 0.1h0.1v0.2 0.5c0.1 0 0.1-0.1 0.1-0.1l0.1-0.7z" fill="#A3CC39"/>
		<path d="m7.8 15.4c-0.1-0.1-0.1-0.1-0.2-0.1h-0.1c-0.1 0-0.1 0.1-0.1 0.2v0.3h0.1v-0.2c0-0.1 0-0.2 0.1-0.2h0.1 0.1c-0.1 0 0 0.1 0 0v0.4h0.1c0-0.1 0-0.3-0.1-0.4z" fill="#A3CC39"/>
		<path d="m9.3 15.4c-0.1-0.1-0.1-0.1-0.2-0.1s-0.1 0-0.1 0.1c-0.1 0-0.1 0.1-0.1 0.2s-0.1 0.2-0.1 0.3v0.1h0.1v-0.1-0.3c0-0.1 0-0.2 0.1-0.2h0.1 0.1s0 0.1 0.1 0v0.4 0.1h0.1v-0.1c0-0.1 0-0.3-0.1-0.4z" fill="#A3CC39"/>
		<path d="m10.5 15.3l-0.3 0.1h0.1v0.2 0.2h0.1l0.1-0.5z" fill="#A3CC39"/>
		<path d="m12 15.2l-0.3 0.1h0.1c0.1 0.1 0.1 0 0.2-0.1z" fill="#A3CC39"/>
</svg>
