<?xml version="1.0" encoding="utf-8"?>
<!-- Generator: Adobe Illustrator 22.1.0, SVG Export Plug-In . SVG Version: 6.00 Build 0)  -->
<svg version="1.1" id="Layer_1" xmlns="http://www.w3.org/2000/svg" xmlns:xlink="http://www.w3.org/1999/xlink" x="0px" y="0px"
	 width="23.7px" height="23.7px" viewBox="0 0 23.7 23.7" style="enable-background:new 0 0 23.7 23.7;" xml:space="preserve">
<g>
	<g>
		<path d="M7.7,13.2L7.7,13.2C7.7,13.2,7.7,13.2,7.7,13.2C7.7,13.2,7.7,13.2,7.7,13.2L7.7,13.2c0.1-0.5,0.3-1,0.5-1.5
			c1.2-2.6,3.8-4.2,6.7-4.1c0.4,0,0.8,0,1.2,0.1c0,0,0,0,0-0.1l0,0c0,0,0,0,0,0c0,0,0,0,0,0l0,0c-0.1-0.5-0.3-1-0.5-1.5
			C14.3,3.6,11.7,2,8.8,2.1C5,2,1.8,5.1,1.7,8.9c0,0.1,0,0.2,0,0.2v3.6c0,2.6-1,3.2-1,3.2c1.4,0.1,2.7-0.4,3.7-1.4
			c0.4,0.4,0.9,0.7,1.5,0.9c0.5,0.2,1,0.3,1.5,0.4l0,0c0.1,0,0.1,0,0.2,0c-0.1-0.4-0.1-0.8-0.1-1.2C7.5,14.2,7.6,13.7,7.7,13.2z"/>
	</g>
	<g>
		<path d="M22,18.3v-3.6c0-0.1,0-0.2,0-0.2C22,11,19.4,8.2,16,7.7c0.1,0.5,0.2,1,0.2,1.4c0,1.6-0.6,3.2-1.7,4.5
			c-0.5,0.5-1,1-1.6,1.3c-0.4,0.2-0.8,0.5-1.3,0.6c-0.4,0.2-0.9,0.3-1.4,0.4c-0.5,0.1-1,0.1-1.5,0.1c-0.2,0-0.5,0-0.7,0
			C8,16,7.8,16,7.6,16c0.2,1.2,0.8,2.3,1.6,3.2c0.5,0.5,1,1,1.6,1.3c0.4,0.2,0.8,0.5,1.3,0.6c0.4,0.2,0.9,0.3,1.4,0.4
			c0.5,0.1,1,0.1,1.5,0.1c0.2,0,0.5,0,0.7,0c0.2,0,0.5,0,0.7-0.1l0,0c0.5-0.1,1-0.2,1.5-0.4c0.6-0.2,1.1-0.5,1.5-0.9
			c1,0.9,2.3,1.4,3.7,1.4C23,21.6,22,20.9,22,18.3z"/>
	</g>
</g>
</svg>
