<?xml version="1.0" encoding="utf-8"?>
<!-- Generator: Adobe Illustrator 22.1.0, SVG Export Plug-In . SVG Version: 6.00 Build 0)  -->
<svg version="1.1" id="Layer_1" xmlns="http://www.w3.org/2000/svg" xmlns:xlink="http://www.w3.org/1999/xlink" x="0px" y="0px"
	 width="16px" height="16px" viewBox="0 0 16 16" style="enable-background:new 0 0 16 16;" xml:space="preserve">
<style type="text/css">
	.st0{fill:#26A7DF;}
</style>
<path class="st0" d="M8,0.8c2.3,0,4.6,0,6.9,0c0.8,0,1.1,0.3,1.1,1.1c0,4,0,7.9,0,11.9c0,0.8-0.3,1.1-1.1,1.1c-4.6,0-9.3,0-13.9,0
	c-0.7,0-1-0.3-1-1c0-4,0-8,0-12c0-0.7,0.3-1,1-1C3.4,0.8,5.7,0.8,8,0.8L8,0.8z M5,11.1H1v2.7h4V11.1L5,11.1z M10,13.8v-2.7H6v2.7
	L10,13.8L10,13.8z M11,13.8h4v-2.7h-4V13.8L11,13.8z M1.1,7.5v2.7h4V7.5H1.1L1.1,7.5z M11,10.2c1.3,0,2.5,0,3.8,0
	c0.1,0,0.2-0.1,0.2-0.2c0-0.8,0-1.7,0-2.5h-4C11,8.4,11,9.3,11,10.2L11,10.2z M6,10.1h4V7.5H6V10.1L6,10.1z M5,6.6V3.9H1
	c0,0.8,0,1.6,0,2.4c0,0.1,0.2,0.2,0.3,0.2C2.5,6.6,3.7,6.6,5,6.6L5,6.6z M6,6.5h4V3.9H6V6.5L6,6.5z M14.9,6.5V3.9h-4v2.7L14.9,6.5
	L14.9,6.5z"/>
</svg>
