<?xml version="1.0" encoding="utf-8"?>
<!-- Generator: Adobe Illustrator 22.1.0, SVG Export Plug-In . SVG Version: 6.00 Build 0)  -->
<svg version="1.1" id="Layer_1" xmlns="http://www.w3.org/2000/svg" xmlns:xlink="http://www.w3.org/1999/xlink" x="0px" y="0px"
	 width="1024px" height="1024px" viewBox="0 0 1024 1024" enable-background="new 0 0 1024 1024" xml:space="preserve">
<g>
	<g>
		<rect x="123.9" y="717.2" fill="#26A7DF" width="257.9" height="159.3"/>
		<path opacity="0.2" fill="#26A7DF" enable-background="new    " d="M381.8,488.3c0-45.5-31.1-82.4-69.4-82.4H193.2
			c-38.3,0-69.4,37-69.4,82.4v99.5h257.9V488.3z"/>
		<rect x="123.9" y="587.9" opacity="0.55" fill="#26A7DF" enable-background="new    " width="257.9" height="129.5"/>
	</g>
	<g>
		<rect x="636" y="658.9" fill="#26A7DF" width="264.1" height="217.7"/>
		<path opacity="0.2" fill="#26A7DF" enable-background="new    " d="M900.1,428.9c0-42.7-31.8-77.4-71-77.4H707
			c-39.2,0-71,34.7-71,77.4v93.5h264.1V428.9z"/>
		<rect x="636" y="522.3" opacity="0.55" fill="#26A7DF" enable-background="new    " width="264.1" height="176.6"/>
	</g>
	<g>
		<rect x="381.8" y="636" fill="#26A7DF" width="254.2" height="240.6"/>
		<path opacity="0.2" fill="#26A7DF" enable-background="new    " d="M636,216.8c0-38.3-30.7-69.4-68.4-69.4H450.2
			c-37.7,0-68.4,31.1-68.4,69.4v154.9H636V216.8z"/>
		<rect x="381.8" y="369.5" opacity="0.55" fill="#26A7DF" enable-background="new    " width="254.2" height="346.1"/>
	</g>
</g>
</svg>
