<?xml version="1.0" encoding="utf-8"?>
<!-- Generator: Adobe Illustrator 22.1.0, SVG Export Plug-In . SVG Version: 6.00 Build 0)  -->
<svg version="1.1" id="Layer_1" xmlns="http://www.w3.org/2000/svg" xmlns:xlink="http://www.w3.org/1999/xlink" x="0px" y="0px"
	 width="1024px" height="1024px" viewBox="0 0 1024 1024" enable-background="new 0 0 1024 1024" xml:space="preserve">
<path fill="#26A7DF" d="M514.1,87.6c139.5,0,278.9,0,418.4,0c48.1,0,64.6,16.3,64.6,64.1c0,240,0,480-0.2,720.1
	c0,48.4-16,64.6-63.8,64.7c-281.4,0.1-562.8,0.1-844.1,0c-44.5,0-62-17-62-61.6c-0.2-242.5-0.2-484.9,0-727.4
	c0-43,17.6-59.7,61.3-59.7C230.3,87.5,372.2,87.6,514.1,87.6L514.1,87.6z M331.3,709.7h-241v163.6h241V709.7L331.3,709.7z
	 M632,874.2V710.5H392.4v163.8H632L632,874.2z M692.7,872.9h241.1V710H692.7V872.9L692.7,872.9z M90.7,490.1v162.1h239.9V490.1H90.7
	L90.7,490.1z M692.5,654.4c78.6,0,154.5,0.2,230.4-0.5c4.1,0,11.6-7.2,11.7-11.1c0.8-50.6,0.5-101.3,0.5-151.7H692.5
	C692.5,545.7,692.5,598.1,692.5,654.4L692.5,654.4z M391.3,652.5h241V490.8h-241L391.3,652.5L391.3,652.5z M330.8,434.4V271.3h-242
	c0,50.8-0.5,99.3,0.7,147.7c0.1,5.2,10,14.6,15.4,14.7C179.4,434.7,253.9,434.4,330.8,434.4L330.8,434.4z M391.8,432.1h239.9V270.8
	H391.8V432.1L391.8,432.1z M933.3,432.8V270.6H693v162.3L933.3,432.8L933.3,432.8z"/>
</svg>
