<?xml version="1.0" encoding="utf-8"?>
<!-- Generator: Adobe Illustrator 22.1.0, SVG Export Plug-In . SVG Version: 6.00 Build 0)  -->
<svg version="1.1" id="Layer_1" xmlns="http://www.w3.org/2000/svg" xmlns:xlink="http://www.w3.org/1999/xlink" x="0px" y="0px"
	 width="1024px" height="1024px" viewBox="0 0 1024 1024" enable-background="new 0 0 1024 1024" xml:space="preserve">
<path fill="#26A7DF" d="M162.6,743.1c-9,0-17.8-3.3-24.8-10.1c-14-13.7-14.3-36.1-0.6-50.2l195-199.4c7.1-7.3,17.1-11.2,27.3-10.6
	s19.6,5.4,25.9,13.5l121,154l348.5-364.9c13.5-14.2,36-14.6,50.1-1.1c14.2,13.5,14.6,36,1.1,50.1L529.3,718.9
	c-7.1,7.4-17.1,11.4-27.4,11s-19.8-5.4-26.1-13.5L354.7,562L188,732.5C181,739.6,171.8,743.1,162.6,743.1z"/>
</svg>
