<?xml version="1.0" encoding="utf-8"?>
<!-- Generator: Adobe Illustrator 22.1.0, SVG Export Plug-In . SVG Version: 6.00 Build 0)  -->
<svg version="1.1" id="Layer_1" xmlns="http://www.w3.org/2000/svg" xmlns:xlink="http://www.w3.org/1999/xlink" x="0px" y="0px"
	 width="16px" height="16px" viewBox="0 0 16 16" style="enable-background:new 0 0 16 16;" xml:space="preserve">
<style type="text/css">
	.st0{opacity:0.5;enable-background:new    ;}
	.st1{opacity:0.15;enable-background:new    ;}
	.st2{opacity:0.6;enable-background:new    ;}
	.st3{opacity:0.65;enable-background:new    ;}
</style>
<path class="st0" d="M12,16h2.5c0.8,0,1.5-0.7,1.5-1.5v-2.4h-4V16z"/>
<polygon points="8,4.1 8,0 4,0 4,4.1 "/>
<path class="st1" d="M4,4.1V0H1.5C0.7,0,0,0.7,0,1.5v2.6l0,0l0,0H4z"/>
<polygon class="st2" points="8,4.1 8,4.1 8,4.1 4,4.1 4,8.2 8,8.2 "/>
<polygon class="st1" points="0,4.1 0,8.2 4,8.2 4,4.1 "/>
<polygon points="4,4.1 8,4.1 8,4.1 "/>
<polygon points="4,16 8,16 8,12.1 4,12.1 "/>
<path class="st0" d="M0,12.1v2.5C0,15.3,0.7,16,1.5,16H4v-3.9H0z"/>
<polygon class="st0" points="0,12.1 4,12.1 4,8.2 0,8.2 "/>
<polygon class="st3" points="8,12.1 8,8.2 4,8.2 4,12.1 "/>
<polygon class="st1" points="16,4.1 16,4.1 16,4.1 12,4.1 12,8.2 16,8.2 "/>
<path class="st0" d="M16,4.1V1.5C16,0.7,15.3,0,14.5,0H12v4.1H16z"/>
<polygon class="st3" points="12,4.1 12,0 8,0 8,4.1 8,4.1 8,4.1 "/>
<polygon points="12,4.1 8,4.1 8,4.1 "/>
<polygon points="12,4.1 16,4.1 16,4.1 "/>
<polygon class="st1" points="12,12.1 16,12.1 16,8.2 12,8.2 "/>
<polygon points="12,8.2 8,8.2 8,12.1 12,12.1 "/>
<polygon points="8,12.1 8,16 12,16 12,12.1 "/>
</svg>
