<?xml version="1.0" encoding="utf-8"?>
<!-- Generator: Adobe Illustrator 22.1.0, SVG Export Plug-In . SVG Version: 6.00 Build 0)  -->
<svg version="1.1" id="Layer_1" xmlns="http://www.w3.org/2000/svg" xmlns:xlink="http://www.w3.org/1999/xlink" x="0px" y="0px"
	 width="1024px" height="1024px" viewBox="0 0 1024 1024" enable-background="new 0 0 1024 1024" xml:space="preserve">
<g>
	<path fill="#26A7DF" d="M852.3,263.6v120h-659v-120H852.3 M852.3,193.8h-659c-38.5,0-69.8,31.3-69.8,69.8v120
		c0,38.5,31.3,69.8,69.8,69.8h659.1c38.5,0,69.8-31.3,69.8-69.8v-120C922.1,225.1,890.9,193.8,852.3,193.8L852.3,193.8z"/>
</g>
<g>
	<path fill="#26A7DF" d="M416.2,650.6v120H193.3v-120H416.2 M416.2,580.8H193.3c-38.5,0-69.8,31.3-69.8,69.8v120
		c0,38.5,31.3,69.8,69.8,69.8h222.9c38.5,0,69.8-31.3,69.8-69.8v-120C486,612.1,454.7,580.8,416.2,580.8L416.2,580.8z"/>
</g>
<g>
	<path fill="#26A7DF" d="M645.6,454.4v120H193.3v-120L645.6,454.4 M645.6,384.6H193.3c-38.5,0-69.8,31.3-69.8,69.8v120
		c0,38.5,31.3,69.8,69.8,69.8h452.5c38.5,0,69.8-31.3,69.8-69.8v-120C715.4,415.9,684.3,384.6,645.6,384.6L645.6,384.6z"/>
</g>
<rect x="123.5" y="356.5" fill="#26A7DF" width="44.2" height="345.1"/>
</svg>
