<?xml version="1.0" encoding="utf-8"?>
<!-- Generator: Adobe Illustrator 22.1.0, SVG Export Plug-In . SVG Version: 6.00 Build 0)  -->
<svg version="1.1" id="Layer_1" xmlns="http://www.w3.org/2000/svg" xmlns:xlink="http://www.w3.org/1999/xlink" x="0px" y="0px"
	 width="16px" height="16px" viewBox="0 0 16 16" style="enable-background:new 0 0 16 16;" xml:space="preserve">
<style type="text/css">
	.st0{fill:#26A7DF;}
</style>
<path class="st0" d="M14.6,1.6H1.4C0.6,1.6,0,2.2,0,3v2.4v0.1v1.2v0.1v2.4v0.1v1.3v0.1v2.4c0,0.8,0.6,1.4,1.4,1.4h4.5
	c0.7,0,1.4-0.6,1.4-1.4v-2.4v-0.1h3.2c0.8,0,1.4-0.6,1.4-1.4V6.7l0,0h2.7c0.8,0,1.4-0.6,1.4-1.4V2.9C16,2.2,15.4,1.5,14.6,1.6z
	 M1.4,9.2V6.8h9.1v2.4H1.4z M1.4,13.1v-2.4h4.5v2.4H1.4z M14.6,2.9v2.4H1.4V2.9H14.6z"/>
</svg>
