<?xml version="1.0" encoding="utf-8"?>
<!-- Generator: Adobe Illustrator 22.1.0, SVG Export Plug-In . SVG Version: 6.00 Build 0)  -->
<svg version="1.1" id="Layer_1" xmlns="http://www.w3.org/2000/svg" xmlns:xlink="http://www.w3.org/1999/xlink" x="0px" y="0px"
	 width="1024px" height="1024px" viewBox="0 0 1024 1024" enable-background="new 0 0 1024 1024" xml:space="preserve">
<path fill="#26A7DF" d="M514.1,87.6c139.5,0,278.9,0,418.4,0c48.1,0,64.6,16.3,64.6,64.1c0,240,0,480-0.2,720.1
	c0,48.4-16,64.6-63.8,64.7c-281.4,0.1-562.8,0.1-844.1,0c-44.5,0-62-17-62-61.6c-0.2-242.5-0.2-484.9,0-727.4
	c0-43,17.6-59.7,61.3-59.7C230.3,87.5,372.2,87.6,514.1,87.6L514.1,87.6z M335.3,432.1h267.2V270.8H335.3V432.1L335.3,432.1z
	 M933.3,432.8V270.6H665.6v162.3L933.3,432.8L933.3,432.8z M335.3,653.3h267.2V491.9H335.3V653.3L335.3,653.3z M933.3,654V491.7
	H665.6V654H933.3L933.3,654z M335.3,871.6h267.2V710.2H335.3V871.6L335.3,871.6z M933.3,872.2V710H665.6v162.3L933.3,872.2
	L933.3,872.2z"/>
</svg>
