<?xml version="1.0" encoding="utf-8"?>
<!-- Generator: Adobe Illustrator 22.1.0, SVG Export Plug-In . SVG Version: 6.00 Build 0)  -->
<svg version="1.1" id="Layer_1" xmlns="http://www.w3.org/2000/svg" xmlns:xlink="http://www.w3.org/1999/xlink" x="0px" y="0px"
	 width="16px" height="16px" viewBox="0 0 16 16" style="enable-background:new 0 0 16 16;" xml:space="preserve">
<style type="text/css">
	.hm0{opacity:0.5;fill:currentColor;enable-background:new    ;}
	.hm1{fill:currentColor;}
	.hm2{opacity:0.15;fill:currentColor;enable-background:new    ;}
	.hm3{opacity:0.6;fill:currentColor;enable-background:new    ;}
	.hm4{opacity:0.65;fill:currentColor;enable-background:new    ;}
	.hm5{fill:currentColor;}
	.hm6{fill:currentColor;}
</style>
<path class="hm0" d="M12,16h2.5c0.8,0,1.5-0.7,1.5-1.5v-2.4l-4,0V16z"/>
<polygon class="hm1" points="8,4.1 8,0 4,0 4,4.1 "/>
<path class="hm2" d="M4,4.1V0L1.5,0C0.7,0,0,0.7,0,1.5l0,2.6h0l0,0L4,4.1z"/>
<polygon class="hm3" points="8,4.1 8,4.1 8,4.1 4,4.1 4,8.1 8,8.2 "/>
<polygon class="hm2" points="0,4.1 0,8.1 4,8.1 4,4.1 "/>
<polygon class="hm1" points="4,4.1 8,4.1 8,4.1 "/>
<polygon class="hm1" points="4,16 8,16 8,12.1 4,12.1 "/>
<path class="hm0" d="M0,12.1v2.5C0,15.3,0.7,16,1.5,16H4v-3.9L0,12.1z"/>
<polygon class="hm0" points="0,12.1 4,12.1 4,8.2 0,8.2 "/>
<polygon class="hm4" points="8,12.1 8,8.2 4,8.2 4,12.1 "/>
<polygon class="hm2" points="16,4.1 16,4.1 16,4.1 12,4.1 12,8.2 16,8.2 "/>
<path class="hm0" d="M16,4.1l0-2.6C16,0.7,15.3,0,14.5,0L12,0v4.1L16,4.1z"/>
<polygon class="hm4" points="12,4.1 12,0 8,0 8,4.1 8,4.1 8,4.1 "/>
<polygon class="hm5" points="12,4.1 8,4.1 8,4.1 "/>
<polygon class="hm6" points="12,4.1 16,4.1 16,4.1 "/>
<polygon class="hm2" points="12,12.1 16,12.1 16,8.2 12,8.2 "/>
<polygon class="hm1" points="12,8.2 8,8.2 8,12.1 12,12.1 "/>
<polygon class="hm1" points="8,12.1 8,16 12,16 12,12.1 "/>
</svg>
