<?xml version="1.0" encoding="utf-8"?>
<!-- Generator: Adobe Illustrator 25.2.3, SVG Export Plug-In . SVG Version: 6.00 Build 0)  -->
<svg version="1.1" id="Layer_1" xmlns="http://www.w3.org/2000/svg" xmlns:xlink="http://www.w3.org/1999/xlink" x="0px" y="0px"
	 viewBox="0 0 16 16" style="enable-background:new 0 0 16 16;" xml:space="preserve">
<style type="text/css">
	.st0{fill:#26A7DF;}
</style>
<g>
	<path class="st0" d="M13.7,10h-1.9V9.5c0-0.7-0.6-1.3-1.3-1.3H8.6V6.6c0-0.7-0.5-1.2-1.2-1.2H5.2C4.6,5.4,4,5.9,4,6.6v4.8H2
		c-0.7,0-1.2,0.6-1.2,1.2v2.2C0.8,15.4,1.3,16,2,16h2h1.3h1.9h1.3h1.9h0.1h3.2c0.7,0,1.2-0.5,1.2-1.2v-3.5C15,10.6,14.4,10,13.7,10z
		 M4,14.7H2.1l-0.1-2h2V14.7z M7.3,14.7H5.3v-3.3V6.7h1.9v1.5V14.7z M10.5,14.7H8.6V9.5l1.9,0V10V14.7z M13.7,14.7h-1.9v-3.4l1.9,0
		V14.7z"/>
	<path class="st0" d="M2.3,6.7c0.2,0,0.4-0.1,0.5-0.2l3.5-4.1L10,6.2c0.2,0.2,0.5,0.3,0.8,0.1l3.4-1.9c0.3-0.2,0.4-0.6,0.3-0.9
		c-0.2-0.3-0.6-0.4-0.9-0.3l-3,1.6l-3.8-4C6.6,0.8,6.4,0.7,6.3,0.7c-0.2,0-0.4,0.1-0.5,0.2l-4,4.7C1.6,5.9,1.6,6.3,1.9,6.5
		C2,6.6,2.1,6.7,2.3,6.7z"/>
</g>
</svg>
