<?xml version="1.0" encoding="utf-8"?>
<!-- Generator: Adobe Illustrator 22.1.0, SVG Export Plug-In . SVG Version: 6.00 Build 0)  -->
<svg version="1.1" id="Layer_1" xmlns="http://www.w3.org/2000/svg" xmlns:xlink="http://www.w3.org/1999/xlink" x="0px" y="0px"
	 width="16px" height="16px" viewBox="0 0 16 16" style="enable-background:new 0 0 16 16;" xml:space="preserve">
<style type="text/css">
	.st0{fill:#26A7DF;}
</style>
<path class="st0" d="M8,0.7c2.3,0,4.6,0,6.9,0C15.7,0.7,16,1,16,1.8c0,4,0,7.9,0,11.9c0,0.8-0.3,1.1-1.1,1.1c-4.6,0-9.3,0-13.9,0
	c-0.7,0-1-0.3-1-1c0-4,0-8,0-12c0-0.7,0.3-1,1-1C3.4,0.7,5.7,0.7,8,0.7L8,0.7z M5.1,6.4h4.4V3.8H5.1V6.4L5.1,6.4z M14.9,6.4V3.8
	h-4.4v2.7L14.9,6.4L14.9,6.4z M5.1,10.1h4.4V7.4H5.1V10.1L5.1,10.1z M14.9,10.1V7.4h-4.4v2.7H14.9L14.9,10.1z M5.1,13.7h4.4V11H5.1
	V13.7L5.1,13.7z M14.9,13.7V11h-4.4v2.7L14.9,13.7L14.9,13.7z"/>
</svg>
