<?xml version="1.0" encoding="utf-8"?>
<!-- Generator: Adobe Illustrator 22.1.0, SVG Export Plug-In . SVG Version: 6.00 Build 0)  -->
<svg version="1.1" id="Layer_1" xmlns="http://www.w3.org/2000/svg" xmlns:xlink="http://www.w3.org/1999/xlink" x="0px" y="0px"
	 viewBox="0 0 1024 1024" style="enable-background:new 0 0 1024 1024;" xml:space="preserve">
<style type="text/css">
	.st0{fill:#26A7DF;}
</style>
<g>
	<path class="st0" d="M426,1018.5c-56.9,0-112.1-11.1-164.1-33.1c-50.2-21.2-95.3-51.6-134-90.3c-38.7-38.7-69.1-83.8-90.4-134
		c-22-52-33.2-107.2-33.2-164.1s11.2-112.1,33.2-164.1c21.2-50.2,51.6-95.3,90.4-134c38.7-38.7,83.8-69.1,134-90.4
		c52-22,107.2-33.2,164.1-33.2c17.7,0,32,14.3,32,32v357.6h357.7c17.7,0,32,14.3,32,32c0,56.9-11.2,112.1-33.2,164.1
		c-21.2,50.2-51.6,95.3-90.4,134s-83.8,69.1-134,90.4C538.1,1007.3,482.9,1018.5,426,1018.5z M394,240.6
		C310.5,248,233,284,173.1,344C105.5,411.5,68.3,501.4,68.3,596.9c0,95.5,37.2,185.3,104.8,252.9c67.6,67.5,157.4,104.7,252.9,104.7
		c95.5,0,185.4-37.2,252.9-104.8c60-60,96-137.5,103.4-220.9H426c-17.7,0-32-14.3-32-32V240.6z"/>
	<path class="st0" d="M987.7,459.2H598c-17.7,0-32-14.3-32-32V37.5c0-17.7,14.3-32,32-32c56.9,0,112.1,11.1,164.1,33.1
		c50.2,21.2,95.3,51.6,134,90.3c38.7,38.7,69.1,83.8,90.4,134c22,52,33.2,107.3,33.2,164.2C1019.7,444.9,1005.4,459.2,987.7,459.2z
		 M630,395.2h324.3c-7.3-83.5-43.4-161-103.4-221c-60-59.9-137.5-96-220.9-103.3V395.2z"/>
</g>
</svg>
