<?xml version="1.0" encoding="utf-8"?>
<!-- Generator: Adobe Illustrator 22.1.0, SVG Export Plug-In . SVG Version: 6.00 Build 0)  -->
<svg version="1.1" id="Layer_1" xmlns="http://www.w3.org/2000/svg" xmlns:xlink="http://www.w3.org/1999/xlink" x="0px" y="0px"
	 width="16px" height="16px" viewBox="0 0 16 16" style="enable-background:new 0 0 16 16;" xml:space="preserve">
<style type="text/css">
	.st0{opacity:0.15;enable-background:new    ;}
	.st1{opacity:0.5;enable-background:new    ;}
</style>
<g>
	<g class="st0">
		<polygon class="st1" points="12,5.5 9.1,10 4.8,0 0,5 0,8 4.4,6.1 9.1,11.8 12,9.3 16,10.7 16,9.7 		"/>
	</g>
	<polygon class="st1" points="12,9.3 9.1,11.8 4.4,6.1 0,8 0,12.4 4.2,7.7 9.7,15.4 12.2,11.1 16,14.3 16,10.7 	"/>
	<path d="M9.7,15.4L4.2,7.6L0,12.4v2.3c0,0.7,0.6,1.3,1.3,1.3h13.4c0.7,0,1.3-0.6,1.3-1.3v-0.4L12.2,11L9.7,15.4z"/>
</g>
</svg>
