<?xml version="1.0" encoding="utf-8"?>
<!-- Generator: Adobe Illustrator 22.1.0, SVG Export Plug-In . SVG Version: 6.00 Build 0)  -->
<svg version="1.1" id="Layer_1" xmlns="http://www.w3.org/2000/svg" xmlns:xlink="http://www.w3.org/1999/xlink" x="0px" y="0px"
	 width="16px" height="16px" viewBox="0 0 16 16" style="enable-background:new 0 0 16 16;" xml:space="preserve">
<g>
	<rect y="7.2" width="1.6" height="1.6"/>
	<path d="M1.6,14.4v-3.8H0v3.7c0,1,0.8,1.7,1.7,1.7h12.6c1,0,1.7-0.8,1.7-1.7v-3.7h-1.6v3.8H1.6z"/>
	<path d="M0,1.7v3.6l1.6,0V1.6l12.8,0v3.8H16V1.7c0-1-0.8-1.7-1.7-1.7H1.7C0.8,0,0,0.8,0,1.7z"/>
	<rect x="3.6" y="7.2" width="1.6" height="1.6"/>
	<rect x="7.2" y="7.2" width="1.6" height="1.6"/>
	<rect x="10.8" y="7.2" width="1.6" height="1.6"/>
	<rect x="14.4" y="7.2" width="1.6" height="1.6"/>
</g>
</svg>
