<?xml version="1.0" encoding="utf-8"?>
<!-- Generator: Adobe Illustrator 22.1.0, SVG Export Plug-In . SVG Version: 6.00 Build 0)  -->
<svg version="1.1" id="Layer_1" xmlns="http://www.w3.org/2000/svg" xmlns:xlink="http://www.w3.org/1999/xlink" x="0px" y="0px"
	 width="16px" height="16px" viewBox="0 0 16 16" enable-background="new 0 0 16 16" xml:space="preserve">
<g>
	<g>
		<path d="M1.4,16C0.6,16,0,15.4,0,14.6v-3.9h4.5V16H1.4z"/>
		<path opacity="0.15" enable-background="new    " d="M8,10.7l-1.1,0V16L8,16c0.9,0,1.7-0.6,1.7-1.4v-2.5C9.7,11.3,8.9,10.7,8,10.7
			L8,10.7z"/>
		<rect x="4.5" y="10.7" opacity="0.5" enable-background="new    " width="2.4" height="5.3"/>
	</g>
	<g>
		<path d="M0,5.4l0-4.1C0,0.6,0.6,0,1.4,0h4.5v5.4H0z"/>
		<path opacity="0.15" enable-background="new    " d="M9.2,0v5.4h1.9c0.9,0,1.6-0.7,1.6-1.5V1.5C12.7,0.7,12,0,11.2,0L9.2,0z"/>
		<rect x="5.9" y="0" opacity="0.5" enable-background="new    " width="3.3" height="5.4"/>
	</g>
	<g>
		<rect x="0" y="5.4" width="8" height="5.2"/>
		<path opacity="0.15" enable-background="new    " d="M11.4,5.4v5.2h3.1c0.8,0,1.4-0.6,1.4-1.4V6.9c0-0.8-0.6-1.4-1.4-1.4H11.4z"/>
		<rect x="8" y="5.4" opacity="0.5" enable-background="new    " width="3.4" height="5.2"/>
	</g>
</g>
</svg>
