<?xml version="1.0" encoding="utf-8"?>
<!-- Generator: Adobe Illustrator 22.1.0, SVG Export Plug-In . SVG Version: 6.00 Build 0)  -->
<svg version="1.1" id="Layer_1" xmlns="http://www.w3.org/2000/svg" xmlns:xlink="http://www.w3.org/1999/xlink" x="0px" y="0px"
	 width="16px" height="16px" viewBox="0 0 16 16" style="enable-background:new 0 0 16 16;" xml:space="preserve">
<style type="text/css">
	.st0{fill:#26A7DF;}
</style>
<g>
	<path class="st0" d="M12.6,8.5H7.4V3.3c0-0.4-0.3-0.7-0.7-0.7c-0.9,0-1.8,0.2-2.6,0.5C3.3,3.5,2.6,3.9,2,4.6
		C1.3,5.2,0.9,5.9,0.5,6.7C0.2,7.5,0,8.4,0,9.3c0,0.9,0.2,1.8,0.5,2.6C0.9,12.7,1.3,13.4,2,14c0.6,0.6,1.3,1.1,2.1,1.4
		C4.9,15.8,5.8,16,6.7,16c0.9,0,1.8-0.2,2.6-0.5c0.8-0.3,1.5-0.8,2.1-1.4c0.6-0.6,1.1-1.3,1.4-2.1c0.3-0.8,0.5-1.7,0.5-2.6
		C13.4,8.9,13,8.5,12.6,8.5z M6.7,10h5.2c-0.2,1.1-0.7,2.1-1.5,3c-1,1-2.3,1.5-3.7,1.5C5.3,14.5,4,14,3,13c-1-1-1.5-2.3-1.5-3.7
		C1.5,7.9,2,6.6,3,5.6c0.8-0.8,1.8-1.3,3-1.5v5.2C6,9.7,6.3,10,6.7,10z"/>
	<path class="st0" d="M15.5,4.1C15.1,3.3,14.7,2.6,14,2c-0.6-0.6-1.3-1.1-2.1-1.4C11.1,0.2,10.2,0,9.3,0C8.9,0,8.6,0.3,8.6,0.7v6
		c0,0.4,0.3,0.7,0.7,0.7h6c0.4,0,0.7-0.3,0.7-0.7C16,5.8,15.8,4.9,15.5,4.1z M10,6V1.5c1.1,0.2,2.2,0.7,3,1.5c0.8,0.8,1.3,1.8,1.5,3
		H10z"/>
</g>
</svg>
