<?xml version="1.0" encoding="utf-8"?>
<!-- Generator: Adobe Illustrator 22.1.0, SVG Export Plug-In . SVG Version: 6.00 Build 0)  -->
<svg version="1.1" id="Layer_1" xmlns="http://www.w3.org/2000/svg" xmlns:xlink="http://www.w3.org/1999/xlink" x="0px" y="0px"
	 width="1024px" height="1024px" viewBox="0 0 1024 1024" enable-background="new 0 0 1024 1024" xml:space="preserve">
<path opacity="0.5" fill="#26A7DF" enable-background="new    " d="M701.7,879.1h118.1c37.7,0,68.4-30.7,68.4-68.4V696.5l-186.5-0.2
	V879.1z"/>
<polygon fill="#26A7DF" points="514.7,322.8 514.9,132.7 328.2,132.4 328.2,322.6 "/>
<path opacity="0.15" fill="#26A7DF" enable-background="new    " d="M328.2,323V132.8l-118-0.1c-37.7,0-68.4,30.6-68.5,68.3
	l-0.1,121.8h0.2l0,0L328.2,323z"/>
<polygon opacity="0.6" fill="#26A7DF" enable-background="new    " points="514.9,322.8 514.7,322.8 514.7,322.8 328.2,322.6 
	328.2,512.7 514.7,513 "/>
<polygon opacity="0.15" fill="#26A7DF" enable-background="new    " points="141.7,322.4 141.5,512.5 328.2,512.7 328.2,322.6 "/>
<polygon fill="#26A7DF" points="328.2,322.6 514.7,322.8 514.7,322.8 "/>
<polygon fill="#26A7DF" points="328.2,879.1 514.8,879.1 514.8,696.1 328.2,695.8 "/>
<path opacity="0.5" fill="#26A7DF" enable-background="new    " d="M141.6,695.5v115c0,37.7,30.7,68.4,68.4,68.4h118.1V695.8
	L141.6,695.5z"/>
<polygon opacity="0.5" fill="#26A7DF" enable-background="new    " points="141.6,695.5 328.2,695.8 328.2,513.1 141.6,513.1 "/>
<polygon opacity="0.65" fill="#26A7DF" enable-background="new    " points="514.8,696.1 514.8,513.1 328.2,513.1 328.2,695.8 "/>
<polygon opacity="0.15" fill="#26A7DF" enable-background="new    " points="888.3,323.2 888.1,323.2 888.1,323.2 701.7,323 
	701.7,513.2 888.1,513.4 "/>
<path opacity="0.5" fill="#26A7DF" enable-background="new    " d="M888.1,323.2l0.1-121.8c0-37.7-30.6-68.4-68.3-68.5l-118.3-0.1
	V323L888.1,323.2z"/>
<polygon opacity="0.65" fill="#26A7DF" enable-background="new    " points="701.7,323 701.7,132.9 515.2,132.7 515,322.8 
	515.1,322.8 515.1,322.8 "/>
<polygon fill="#56C3E8" points="701.7,323 515.1,322.8 515.1,322.8 "/>
<polygon fill="#C9C9C9" points="701.7,323 888.1,323.2 888.1,323.2 "/>
<polygon opacity="0.15" fill="#26A7DF" enable-background="new    " points="701.7,696.3 888.2,696.5 888.2,513.1 701.7,513.1 "/>
<polygon fill="#26A7DF" points="701.7,513.1 515,513.1 515,696.1 701.7,696.3 "/>
<polygon fill="#26A7DF" points="515,696.1 515,879.1 701.7,879.1 701.7,696.3 "/>
</svg>
