<?xml version="1.0" encoding="utf-8"?>
<!-- Generator: Adobe Illustrator 22.1.0, SVG Export Plug-In . SVG Version: 6.00 Build 0)  -->
<svg version="1.1" id="Layer_1" xmlns="http://www.w3.org/2000/svg" xmlns:xlink="http://www.w3.org/1999/xlink" x="0px" y="0px"
	 width="1024px" height="1024px" viewBox="0 0 1024 1024" enable-background="new 0 0 1024 1024" xml:space="preserve">
<g>
	<g>
		
			<rect x="118.5" y="175.8" transform="matrix(-1.836970e-16 1 -1 -1.836970e-16 502.9283 7.9023)" fill="#26A7DF" width="257.9" height="159.3"/>
		<path opacity="0.2" fill="#26A7DF" enable-background="new    " d="M556.1,384.4c45.5,0,82.4-31.1,82.4-69.4V195.8
			c0-38.3-37-69.4-82.4-69.4h-99.5v257.9H556.1z"/>
		<rect x="327.1" y="126.5" opacity="0.55" fill="#26A7DF" enable-background="new    " width="129.5" height="257.9"/>
	</g>
	<g>
		
			<rect x="144.7" y="661.8" transform="matrix(-1.836970e-16 1 -1 -1.836970e-16 1047.3685 493.9495)" fill="#26A7DF" width="264.1" height="217.7"/>
		<path opacity="0.2" fill="#26A7DF" enable-background="new    " d="M615.5,902.7c42.7,0,77.4-31.8,77.4-71V709.6
			c0-39.2-34.7-71-77.4-71h-93.5v264.1H615.5z"/>
		<rect x="345.5" y="638.6" opacity="0.55" fill="#26A7DF" enable-background="new    " width="176.6" height="264.1"/>
	</g>
	<g>
		
			<rect x="161" y="391.2" transform="matrix(-1.836970e-16 1 -1 -1.836970e-16 799.6447 223.3443)" fill="#26A7DF" width="254.2" height="240.6"/>
		<path opacity="0.2" fill="#26A7DF" enable-background="new    " d="M827.6,638.6c38.3,0,69.4-30.7,69.4-68.4V452.7
			c0-37.7-31.1-68.4-69.4-68.4H672.7v254.2H827.6z"/>
		<rect x="328.8" y="384.4" opacity="0.55" fill="#26A7DF" enable-background="new    " width="346.1" height="254.2"/>
	</g>
</g>
</svg>
