<?xml version="1.0" encoding="utf-8"?>
<!-- Generator: Adobe Illustrator 22.1.0, SVG Export Plug-In . SVG Version: 6.00 Build 0)  -->
<svg version="1.1" id="Layer_1" xmlns="http://www.w3.org/2000/svg" xmlns:xlink="http://www.w3.org/1999/xlink" x="0px" y="0px"
	 width="16px" height="16px" viewBox="0 0 16 16" style="enable-background:new 0 0 16 16;" xml:space="preserve">
<style type="text/css">
	.st0{opacity:0.15;enable-background:new    ;}
	.st1{opacity:0.5;enable-background:new    ;}
</style>
<g>
	<g>
		<path d="M0,11.5h5.3V16H1.4C0.6,16,0,15.4,0,14.6V11.5z"/>
		<path class="st0" d="M5.3,8c0-0.9-0.6-1.7-1.4-1.7H1.4C0.6,6.3,0,7.1,0,8l0,1.1h5.3V8L5.3,8z"/>
		<rect x="0" y="9.1" class="st1" width="5.3" height="2.4"/>
	</g>
	<g>
		<path d="M10.6,10.1H16v4.5c0,0.8-0.6,1.4-1.4,1.4h-4.1V10.1z"/>
		<path class="st0" d="M16,4.8c0-0.9-0.7-1.6-1.5-1.6H12c-0.8,0-1.5,0.7-1.5,1.6v1.9H16V4.8z"/>
		<rect x="10.6" y="6.8" class="st1" width="5.4" height="3.3"/>
	</g>
	<g>
		<rect x="5.3" y="8" width="5.2" height="8"/>
		<path class="st0" d="M10.6,1.4C10.6,0.6,9.9,0,9.1,0H6.7C6,0,5.3,0.6,5.3,1.4v3.1h5.2V1.4z"/>
		<rect x="5.3" y="4.6" class="st1" width="5.2" height="3.4"/>
	</g>
</g>
</svg>
