<?xml version="1.0" encoding="utf-8"?>
<!-- Generator: Adobe Illustrator 22.1.0, SVG Export Plug-In . SVG Version: 6.00 Build 0)  -->
<svg version="1.1" id="Layer_1" xmlns="http://www.w3.org/2000/svg" xmlns:xlink="http://www.w3.org/1999/xlink" x="0px" y="0px"
	 width="16px" height="16px" viewBox="0 0 16 16" style="enable-background:new 0 0 16 16;" xml:space="preserve">
<style type="text/css">
	.st0{fill:#26A7DF;}
</style>
<path class="st0" d="M1,12.2c-0.2,0-0.3-0.1-0.5-0.2c-0.3-0.3-0.3-0.7,0-1l3.8-3.9C4.5,7,4.7,7,4.9,7s0.4,0.1,0.5,0.3l2.3,3l6.8-7.1
	c0.3-0.3,0.7-0.3,1,0c0.3,0.3,0.3,0.7,0,1l-7.3,7.7C8,11.9,7.8,12,7.6,12s-0.4-0.1-0.5-0.3l-2.3-3L1.5,12C1.4,12.2,1.2,12.2,1,12.2z
	"/>
</svg>
