<?xml version="1.0" encoding="utf-8"?>
<!-- Generator: Adobe Illustrator 22.1.0, SVG Export Plug-In . SVG Version: 6.00 Build 0)  -->
<svg version="1.1" id="Layer_1" xmlns="http://www.w3.org/2000/svg" xmlns:xlink="http://www.w3.org/1999/xlink" x="0px" y="0px"
	 width="16px" height="16px" viewBox="0 0 16 16" style="enable-background:new 0 0 16 16;" xml:space="preserve">
<style type="text/css">
	.st0{fill:#26A7DF;}
</style>
<path class="st0" d="M12.6,0h-2.4C9.4,0,8.8,0.6,8.8,1.4v2.7c0,0,0,0,0,0H6.3c-0.8,0-1.4,0.6-1.4,1.4v3.2c0,0-0.1,0-0.1,0H2.4
	C1.6,8.7,1,9.4,1,10.1v4.5C1,15.4,1.6,16,2.4,16h2.4c0,0,0.1,0,0.1,0h1.3c0,0,0.1,0,0.1,0h2.4c0,0,0.1,0,0.1,0H10c0,0,0.1,0,0.1,0
	h2.4c0.8,0,1.4-0.6,1.4-1.4V1.4C14,0.6,13.3,0,12.6,0z M6.3,5.5h2.4v9.1H6.3V5.5z M2.4,10.1h2.4v4.5H2.4V10.1z M12.6,14.6h-2.4V1.4
	h2.4V14.6z"/>
</svg>
