<?xml version="1.0" encoding="utf-8"?>
<!-- Generator: Adobe Illustrator 22.1.0, SVG Export Plug-In . SVG Version: 6.00 Build 0)  -->
<svg version="1.1" id="Capa_1" xmlns="http://www.w3.org/2000/svg" xmlns:xlink="http://www.w3.org/1999/xlink" x="0px" y="0px"
	 width="544.2px" height="544.2px" viewBox="0 0 544.2 544.2" enable-background="new 0 0 544.2 544.2" xml:space="preserve">
<path class="mic-icon" fill="#FFFFFF" d="M439.5,209.3c-5.7,0-10.6,2.1-14.7,6.2c-4.1,4.1-6.2,9.1-6.2,14.7v41.9c0,40.3-14.3,74.8-43,103.5
	c-28.7,28.7-63.2,43-103.5,43c-40.3,0-74.8-14.3-103.5-43c-28.7-28.7-43-63.2-43-103.5v-41.9c0-5.7-2.1-10.6-6.2-14.7
	c-4.1-4.1-9.1-6.2-14.7-6.2c-5.7,0-10.6,2.1-14.7,6.2c-4.1,4.1-6.2,9.1-6.2,14.7v41.9c0,48.2,16.1,90.1,48.2,125.7
	c32.2,35.7,71.9,56.1,119.2,61.3v43.2h-83.7c-5.7,0-10.6,2.1-14.7,6.2c-4.1,4.1-6.2,9-6.2,14.7c0,5.7,2.1,10.6,6.2,14.7
	c4.1,4.1,9,6.2,14.7,6.2h209.3c5.7,0,10.6-2.1,14.7-6.2c4.1-4.1,6.2-9.1,6.2-14.7c0-5.7-2.1-10.6-6.2-14.7
	c-4.1-4.1-9.1-6.2-14.7-6.2H293v-43.2c47.3-5.2,87-25.7,119.2-61.3c32.2-35.6,48.2-77.6,48.2-125.7v-41.9c0-5.7-2.1-10.6-6.2-14.7
	C450.1,211.4,445.2,209.3,439.5,209.3z"/>
<path class="mic-icon" fill="#FFFFFF" d="M222.8,203.7h-55.3v38.4h55.3c8.5,0,15.3,6.8,15.3,15.3s-6.8,15.3-15.3,15.3h-55.3
	c0.2,28.5,10.4,52.9,30.7,73.3c20.5,20.5,45.1,30.7,73.9,30.7c28.8,0,53.4-10.2,73.9-30.7c20.3-20.3,30.6-44.8,30.7-73.3h-53.4
	c-8.5,0-15.3-6.8-15.3-15.3s6.8-15.3,15.3-15.3h53.4v-38.4h-53.4c-8.5,0-15.3-6.8-15.3-15.3s6.8-15.3,15.3-15.3h53.4v-40.8h-53.4
	c-8.5,0-15.3-6.8-15.3-15.3s6.8-15.3,15.3-15.3h53.3c-0.7-27.5-10.8-51.2-30.6-71C325.5,10.2,300.9,0,272.1,0
	c-28.8,0-53.4,10.2-73.9,30.7c-19.8,19.8-29.9,43.5-30.6,71h55.2c8.5,0,15.3,6.8,15.3,15.3s-6.8,15.3-15.3,15.3h-55.3v40.8h55.3
	c8.5,0,15.3,6.8,15.3,15.3S231.2,203.7,222.8,203.7z"/>
</svg>
